<?xml version="1.0" encoding="UTF-8" standalone="no"?>
<svg
   xmlns:dc="http://purl.org/dc/elements/1.1/"
   xmlns:cc="http://creativecommons.org/ns#"
   xmlns:rdf="http://www.w3.org/1999/02/22-rdf-syntax-ns#"
   xmlns:svg="http://www.w3.org/2000/svg"
   xmlns="http://www.w3.org/2000/svg"
   xmlns:sodipodi="http://sodipodi.sourceforge.net/DTD/sodipodi-0.dtd"
   xmlns:inkscape="http://www.inkscape.org/namespaces/inkscape"
   version="1.1"
   id="svg10"
   width="4153.0933"
   height="1876.259"
   viewBox="0 0 4153.0933 1876.259"
   sodipodi:docname="Circuit.svg"
   inkscape:version="1.0.1 (3bc2e813f5, 2020-09-07)">
  <metadata
     id="metadata16">
    <rdf:RDF>
      <cc:Work
         rdf:about="">
        <dc:format>image/svg+xml</dc:format>
        <dc:type
           rdf:resource="http://purl.org/dc/dcmitype/StillImage" />
        <dc:title />
      </cc:Work>
    </rdf:RDF>
  </metadata>
  <defs
     id="defs14" />
  <sodipodi:namedview
     pagecolor="#ffffff"
     bordercolor="#666666"
     borderopacity="1"
     objecttolerance="10"
     gridtolerance="10"
     guidetolerance="10"
     inkscape:pageopacity="0"
     inkscape:pageshadow="2"
     inkscape:window-width="1920"
     inkscape:window-height="1012"
     id="namedview12"
     showgrid="false"
     inkscape:snap-bbox="false"
     inkscape:zoom="0.18847812"
     inkscape:cx="1500.7896"
     inkscape:cy="564.46659"
     inkscape:window-x="-8"
     inkscape:window-y="-8"
     inkscape:window-maximized="1"
     inkscape:current-layer="g18"
     inkscape:document-rotation="0" />
  <g
     inkscape:groupmode="layer"
     inkscape:label="Image"
     id="g18">
    <path
       style="fill:#000000;stroke-width:2.30216"
       d="m 3209.2085,1782.5526 c -2.8924,-2.8922 -1.5321,-5.0518 3.645,-5.7871 5.1357,-0.7294 5.1852,-1.1043 5.8063,-43.9387 l 0.6267,-43.2031 -5.8066,-2.2076 c -12.5626,-4.7763 -5.5995,-6.9257 22.3952,-6.913 30.7594,0.014 40.7857,1.8965 52.6448,9.8845 12.734,8.5771 19.3078,22.9027 19.2284,41.9012 -0.1128,27.0231 -12.8746,43.625 -37.9164,49.3271 -11.5163,2.6223 -58.2162,3.3439 -60.6234,0.9367 z m 56.0433,-11.5075 c 8.6319,-5.0991 11.68,-12.4975 13.1221,-31.8498 2.1074,-28.2866 -6.2619,-46.0702 -22.9304,-48.7242 l -8.6331,-1.3746 v 41.3563 c 0,22.7461 0.6906,42.0471 1.5348,42.8912 2.6832,2.6833 10.2034,1.6607 16.9066,-2.2989 z m -420.0037,-48.1293 c -3.0328,-3.0329 -3.6176,-10.6316 -3.6176,-47.006 0,-23.8635 0.6287,-45.027 1.3974,-47.0298 0.7685,-2.0028 3.7657,-3.6415 6.6602,-3.6415 2.8945,0 5.8917,1.6387 6.6601,3.6415 2.7716,7.2223 1.5521,91.9735 -1.3652,94.8909 -3.6408,3.6407 -5.3928,3.4868 -9.7349,-0.8551 z m -2035.96278,-8.3536 c -2.91732,-2.9173 -4.13666,-87.6686 -1.36521,-94.8908 1.93992,-5.0554 9.4595,-4.5607 12.33458,0.8114 1.3914,2.5999 2.38314,21.8236 2.38314,46.1945 0,24.371 -0.99174,43.5947 -2.38314,46.1945 -2.71558,5.0741 -6.93539,5.7244 -10.96937,1.6904 z M 613.14144,1609.9013 c -14.26507,-4.6045 -20.71942,-13.094 -20.71942,-27.2527 0,-10.8833 5.05809,-20.2893 12.80997,-23.8213 l 6.24881,-2.8472 -1.11224,-142.6611 c -0.61173,-78.4636 -1.68872,-143.2376 -2.3933,-143.9421 -0.70457,-0.7046 -8.37718,-2.7654 -17.05024,-4.5794 -59.48805,-12.4428 -104.40228,-68.3343 -104.40228,-129.9187 0,-61.8424 43.21678,-115.6393 104.97522,-130.6748 l 16.3421,-3.9787 1.49962,-48.15236 c 0.82477,-26.48382 1.4996,-114.84698 1.4996,-196.36261 V 607.5001 l -9.20863,-8.75997 c -7.50975,-7.14385 -9.20863,-10.33333 -9.20863,-17.28829 0,-12.36022 5.34234,-20.98686 15.51827,-25.05846 11.6343,-4.65513 20.06218,-2.72157 29.21483,6.70259 l 7.53059,7.75402 H 798.6191 952.55249 l -12.32412,-12.47913 c -8.31784,-8.42247 -11.86404,-13.67809 -10.90883,-16.16732 3.32798,-8.67255 8.65966,-6.45718 26.6918,11.09072 l 18.04019,17.55573 h 94.65287 94.6528 l 0.046,-53.52518 c 0.049,-58.09667 2.198,-80.61116 8.7152,-91.32782 11.2663,-18.52588 29.9253,-22.37014 47.7153,-9.83065 l 10.2147,7.2 11.928,-7.40927 c 16.5902,-10.30517 33.2045,-10.3807 47.875,-0.21755 l 10.175,7.04877 10.5145,-7.11042 c 14.2879,-9.66209 33.1754,-10.03304 48.2642,-0.94785 l 10.1237,6.09568 8.6602,-5.73108 c 11.5132,-7.61904 27.0404,-8.35306 35.952,-1.69953 3.5633,2.66038 9.0751,9.87905 12.2484,16.04149 5.6743,11.01937 5.7887,12.30849 6.9207,78.03559 l 1.1511,66.83113 h 343.0216 343.0215 l 1.1511,-65.61152 c 1.0994,-62.66256 1.3899,-66.09632 6.4643,-76.39806 6.2301,-12.64774 17.517,-20.29258 29.9604,-20.29258 8.4113,0 25.3052,7.32365 28.5457,12.37483 1.2114,1.88816 2.7697,1.8022 5.7554,-0.31753 18.2117,-12.92925 37.5467,-15.14236 54.9272,-6.28704 l 11.3254,5.77025 11.5108,-6.24774 c 15.6766,-8.5088 30.9043,-8.53106 45.3484,-0.0663 l 10.6019,6.21313 10.7327,-5.99861 c 13.6176,-7.61103 30.3018,-6.88891 39.5156,1.71027 13.364,12.47284 14.6629,18.50169 14.6847,68.15268 0,25.05763 0.6734,50.99819 1.4718,57.64567 l 1.4517,12.08634 h 84.6057 84.6057 l 17.6873,-17.40271 c 17.6992,-17.41447 22.6491,-19.5785 27.4272,-11.99114 2.0901,3.31925 0.4266,6.09824 -9.9283,16.58326 l -12.4392,12.59577 323.2683,-1.34524 c 253.411,-1.05455 324.0147,-1.96632 326.7219,-4.21931 6.2123,-5.17037 18.0751,-10.33574 23.737,-10.33574 3.0518,0 9.5768,2.7336 14.5,6.07468 l 8.9517,6.0747 245.7777,-1.10715 c 176.1386,-0.79344 246.3539,-0.39468 247.8117,1.40733 1.1186,1.38296 2.7853,81.76626 3.7041,178.62957 0.9188,96.86331 2.3257,182.4298 3.1266,190.14773 l 1.4559,14.03263 55.2518,56.88251 c 30.3885,31.28542 55.4896,58.63972 55.7803,60.78752 0.3256,2.4038 -21.1998,26.0298 -55.9947,61.459 l -56.5235,57.5539 1.2317,207.7353 c 1.1992,202.2708 1.1168,207.7968 -3.1344,210.0719 -2.8756,1.539 -88.4459,2.3367 -250.6712,2.3367 H 3283.999 l -6.9065,6.9064 c -5.6951,5.6952 -8.7855,6.9065 -17.6203,6.9065 -8.8347,0 -11.9251,-1.2113 -17.6202,-6.9065 l -6.9065,-6.9064 H 1939.1642 643.38303 l -4.8209,6.7703 c -5.5174,7.7485 -17.721,12.6081 -25.42069,10.1227 z m 1271.32106,-66.3894 c -0.3418,-17.7267 -1.1932,-39.5926 -1.8922,-48.591 -1.537,-19.7884 1.5334,-24.8063 13.5378,-22.125 4.0662,0.9081 31.7846,1.6512 61.5966,1.6512 47.9091,0 54.9232,-0.4716 60.3996,-4.0608 13.2495,-8.6838 16.0278,-20.9818 7.3565,-32.564 -3.1981,-4.2717 -3.7351,-4.1895 -19.2036,2.9404 -16.9328,7.8049 -39.2846,11.3503 -54.0701,8.5765 -10.8512,-2.0357 -21.2648,-11.0234 -23.0366,-19.8822 -1.7968,-8.9841 3.2581,-21.3945 10.7003,-26.2708 15.5653,-10.1988 52.0391,-8.4876 71.2827,3.3442 l 10.9419,6.7275 3.5519,-5.4209 c 5.114,-7.8051 6.5791,-20.2703 3.4844,-29.6472 -4.5666,-13.8371 -7.1829,-14.4514 -24.7387,-5.8087 -14.2496,7.0151 -17.4223,7.6775 -36.7698,7.6775 -17.8702,0 -22.1889,-0.7508 -27.6743,-4.8113 -15.3434,-11.3578 -15.3109,-28.5495 0.077,-41.0044 8.2581,-6.6838 10.0084,-7.1339 27.7393,-7.1339 17.2177,0 20.4695,0.7701 36.0453,8.536 l 17.1203,8.5361 3.8613,-5.0351 c 7.7276,-10.0768 7.1713,-26.6475 -1.249,-37.2077 l -4.9388,-6.1938 -15.5309,7.2678 c -25.3621,11.8683 -52.5117,12.2157 -66.0254,0.8447 -13.2177,-11.122 -11.3076,-28.9411 4.2232,-39.3959 14.2332,-9.5813 54.5607,-5.8429 70.27,6.514 l 6.2077,4.883 5.3861,-5.06 c 11.5904,-10.8886 8.771,-25.5739 -6.2159,-32.3766 -8.8472,-4.0157 -15.4598,-4.4537 -67.9308,-4.4994 -55.0234,-0.048 -58.3754,-0.2965 -62.7337,-4.6548 -4.3158,-4.3159 -4.6043,-7.6739 -4.6043,-53.5973 v -48.9929 l -13.98,-13.7409 c -17.4884,-17.1893 -19.3453,-20.3745 -14.628,-25.0918 5.2025,-5.2025 6.8382,-4.6761 18.2997,5.8887 l 10.3083,9.5019 v -81.9712 -81.97115 l -45.4676,-0.62421 -45.4677,-0.62421 v -12.66187 -12.66187 h 101.295 101.295 v 12.66187 12.66187 l -47.7698,0.62226 -47.7698,0.62225 v 83.14606 83.146 l 11.4122,-10.6748 c 12.2662,-11.4736 13.8152,-12.1524 18.0554,-7.9121 4.8719,4.8718 3.0824,8.1985 -13.4006,24.9121 l -16.1633,16.3893 0.6237,45.3061 0.6237,45.3061 56.4028,1.1644 c 51.1468,1.0558 57.3881,1.6187 66.9748,6.0407 21.6183,9.9717 26.81,28.6553 13.7848,49.6083 -6.4088,10.3096 -6.8766,12.1338 -3.9554,15.4251 11.5665,13.0325 13.8046,37.303 4.8794,52.9156 l -5.743,10.0461 7.196,14.617 c 8.3646,16.9909 8.0457,27.6401 -1.321,44.1143 l -5.5486,9.7588 5.7238,10.2409 c 11.5147,20.6021 5.8194,39.9523 -14.7394,50.0782 -10.3081,5.077 -13.698,5.3822 -68.0494,6.1274 l -57.2008,0.7843 1.6498,41.8057 c 0.9074,22.9931 2.1046,42.5826 2.6605,43.5322 0.5558,0.9497 212.5466,1.7277 471.0905,1.729 h 470.08 l -0.7376,-47.9313 c -0.652,-42.3557 -0.2947,-48.2988 3.0706,-51.0918 2.784,-2.3104 4.8401,-2.5086 7.6441,-0.7366 3.3823,2.1374 3.8359,8.1789 3.8359,51.0913 v 48.6674 h 188.1422 188.1423 l 3.5603,-6.8848 c 1.9582,-3.7866 6.1345,-8.5715 9.2809,-10.633 l 5.7206,-3.7483 -0.5886,-192.0472 -0.5887,-192.0472 -22.8517,-9.8224 c -32.6517,-14.0347 -34.1953,-19.2148 -8.7125,-29.2402 13.6527,-5.3713 16.1172,-6.3996 43.4608,-18.1352 9.0756,-3.8951 17.6224,-7.082 18.9928,-7.082 8.4642,0 -2.3498,-5.9516 -38.3714,-21.1185 -36.8322,-15.5082 -40.8633,-17.751 -40.8633,-22.7351 0,-5.5739 8.8833,-9.9674 71.22,-35.2233 5.7787,-2.3413 10.4921,-4.9312 10.4744,-5.7554 -0.023,-0.8242 -17.7075,-8.7384 -39.3105,-17.5872 -21.603,-8.84867 -40.4349,-17.48227 -41.8487,-19.18573 -4.9671,-5.98513 2.1795,-10.73871 40.4176,-26.88393 20.992,-8.86331 38.7852,-16.75094 39.5405,-17.52808 0.7554,-0.77717 -4.0969,-3.66053 -10.7831,-6.40749 -6.6859,-2.74698 -13.7102,-5.84888 -15.6095,-6.89314 -2.9942,-1.64623 -3.6869,-23.86763 -5.2102,-167.12893 l -1.7573,-165.23026 -9.178,-8.90709 c -5.0482,-4.8989 -9.1782,-10.75161 -9.1782,-13.006 0,-3.91406 -14.1986,-4.06573 -314.8202,-3.36313 -173.151,0.4047 -317.2171,1.24839 -320.1468,1.8749 -5.1778,1.10729 -5.0537,1.46514 4.4424,12.80721 7.7475,9.25341 9.2752,12.45255 7.3821,15.45885 -4.6305,7.35383 -9.4455,5.11894 -23.8225,-11.05775 l -14.4248,-16.23058 h -91.6013 c -53.5788,0 -94.0381,-0.92651 -97.472,-2.23208 -5.5332,-2.10369 -5.7736,-2.86515 -4.1786,-13.23741 0.9305,-6.05293 1.6921,-34.49844 1.6921,-63.21223 0,-49.34814 -0.2634,-52.56272 -4.8113,-58.70503 -8.8591,-11.96483 -18.836,-13.86351 -32.0103,-6.09181 -4.5209,2.66695 -4.494,2.90688 1.7513,15.64097 7.8932,16.09389 12.1862,40.0253 9.8987,55.18083 -3.3517,22.20682 -23.8939,33.70765 -38.9929,21.83074 -8.054,-6.33524 -10.5287,-11.37089 -12.9752,-26.40288 -2.6761,-16.44275 0.5464,-35.5706 8.5768,-50.90838 6.2831,-12.00048 6.3026,-12.1713 1.7744,-15.52999 -5.8451,-4.33557 -20.0995,-6.82666 -26.9274,-4.70587 -2.9023,0.9015 -8.1847,3.68753 -11.7386,6.1912 -5.741,4.04447 -6.0907,4.97353 -3.1353,8.33105 11.8933,13.51162 19.0138,50.16955 13.1791,67.84893 -7.9343,24.04098 -36.9787,26.44429 -47.6737,3.94484 -8.5814,-18.05293 -6.3068,-40.75801 6.4064,-63.95117 3.6333,-6.62831 6.606,-12.55853 6.606,-13.17829 0,-3.04544 -14.7223,-8.15056 -23.4828,-8.14294 -9.7918,0.009 -24.8625,6.88043 -24.8625,11.33675 0,1.21243 2.0666,5.70693 4.5923,9.98782 10.8645,18.41383 14.7109,47.15577 8.3486,62.38301 -9.3336,22.33825 -35.132,23.10312 -46.3682,1.37471 -7.2522,-14.02415 -1.3592,-57.24768 9.4305,-69.17014 3.7901,-4.18804 3.7797,-4.64343 -0.2074,-9.04907 -5.4187,-5.9876 -16.7676,-8.9705 -24.3469,-6.39924 -3.2786,1.11226 -8.1995,6.0049 -10.9353,10.87254 -4.7956,8.53267 -4.9741,11.3733 -4.9741,79.16374 0,60.81411 -0.4881,70.80161 -3.6131,73.92658 -2.6862,2.68625 -4.7251,3.01797 -7.948,1.29312 -2.7847,-1.49032 -43.6855,-2.10615 -114.3725,-1.72206 l -110.0375,0.59794 v 136.97842 136.97842 l 47.7697,0.62225 47.7698,0.62225 v 12.61516 12.61516 H 1891.99 1789.544 v -12.66187 -12.66187 h 46.0431 46.0432 V 727.35409 589.18191 l -229.2994,0.12985 c -178.9412,0.10129 -230.0531,-0.49571 -232.7312,-2.71832 -2.9365,-2.43707 -3.3233,-13.16407 -2.6802,-74.33172 0.6841,-65.06275 0.3832,-72.16456 -3.3503,-79.06454 -5.2242,-9.65523 -13.4635,-12.98102 -23.7492,-9.58642 -4.2317,1.39656 -8.2279,3.40323 -8.8806,4.45928 -0.6526,1.05602 1.8892,8.4239 5.6486,16.37306 14.0754,29.76249 14.6526,53.8593 1.6302,68.06403 -5.992,6.53608 -9.006,7.99397 -16.7447,8.09968 -13.0803,0.17865 -18.9102,-3.62507 -24.0951,-15.72107 -7.882,-18.38794 -4.6927,-47.39727 7.3537,-66.88886 5.6199,-9.09316 4.8423,-10.25985 -9.8581,-14.79056 -10.3035,-3.17558 -22.5254,-1.12919 -30.4405,5.09684 l -5.9373,4.67027 6.6934,11.95987 c 14.269,25.49643 14.1491,59.92118 -0.2457,70.56373 -12.909,9.54404 -31.4789,5.32605 -39.2151,-8.90732 -1.7395,-3.20058 -2.9631,-12.54778 -2.8866,-22.05194 0.1128,-14.01501 1.3799,-19.12265 8.4229,-33.95315 l 8.29,-17.45653 -5.215,-4.89925 c -9.7938,-9.20085 -32.0951,-8.26758 -41.1351,1.72142 -3.2758,3.61973 -2.885,5.37561 4.5121,20.27789 18.5679,37.40678 9.4355,73.04394 -18.7183,73.04394 -14.0599,0 -20.4743,-6.21247 -24.1046,-23.34552 -2.3292,-10.99294 -2.1756,-15.69453 0.953,-29.16906 2.0514,-8.83506 6.3695,-20.56813 9.5959,-26.07351 5.5592,-9.48613 5.6605,-10.23694 1.9353,-14.35317 -6.6738,-7.37448 -18.1055,-9.95481 -26.005,-5.86981 -11.9928,6.20169 -12.8564,11.95098 -13.4768,89.71451 -0.3119,39.10238 -1.0293,71.55745 -1.5942,72.12233 -0.5649,0.56491 -47.4785,0.97002 -104.2525,0.90026 l -103.22532,-0.12689 -12.66187,14.74369 c -13.71368,15.96843 -19.09691,19.29072 -24.28314,14.98654 -4.91295,-4.07738 -4.28052,-5.90032 5.86587,-16.90783 5.06475,-5.49461 9.20863,-10.65133 9.20863,-11.45937 0,-0.80803 -27.97122,-1.46916 -62.15827,-1.46916 h -62.15827 v 40.97841 c 0,42.1368 -0.88481,46.5036 -9.42275,46.5036 -2.14368,0 -4.52641,-1.63867 -5.29497,-3.64153 -0.76857,-2.00283 -1.39738,-21.68628 -1.39738,-43.74101 V 586.9651 h -80.66776 -80.66774 l -9.11643,9.58335 -9.11641,9.58333 v 197.61092 197.6109 h 6.48863 c 21.59344,0 57.91747,18.0724 78.71986,39.1657 28.13891,28.5325 39.14201,54.6119 39.05176,92.5602 -0.0684,28.713 -2.21884,38.7455 -13.08058,61.0204 -5.99093,12.286 -13.08637,21.8826 -24.95381,33.75 -22.49109,22.4911 -44.91623,33.8547 -77.59277,39.319 l -8.63309,1.4437 v 144.7765 c 0,144.0903 0.023,144.7836 4.73538,146.2795 2.60445,0.8266 6.42314,5.0422 8.48594,9.3679 l 3.75056,7.8651 620.57873,-0.5798 620.5788,-0.5797 z m -1076.82307,18.9928 c -0.70022,-2.849 -0.97894,-24.7515 -0.61939,-48.6724 0.58726,-39.0678 1.07736,-43.752 4.81738,-46.0432 3.33249,-2.0415 4.82601,-1.6586 7.48201,1.9182 4.39639,5.9205 4.89234,90.8781 0.55581,95.2146 -4.47811,4.4781 -10.85039,3.2192 -12.23581,-2.4172 z M 2843.0756,1423.7359 c -0.7947,-2.0714 -1.4451,-23.1668 -1.4451,-46.8788 0,-33.9422 0.7059,-44.0633 3.3184,-47.5815 2.6571,-3.578 4.1482,-3.9599 7.482,-1.9157 3.8024,2.3316 4.1637,6.7258 4.1637,50.6475 v 48.0944 l -6.037,0.7001 c -3.9335,0.4561 -6.5402,-0.612 -7.482,-3.066 z m -2033.79028,-6.1521 c -1.96752,-1.9675 -2.76259,-16.2335 -2.76259,-49.5686 0,-41.2101 0.45028,-46.9789 3.76614,-48.2513 2.07139,-0.7949 5.4383,-0.3915 7.48202,0.8965 3.17635,2.0017 3.80639,8.8762 4.33936,47.3482 0.53548,38.6522 0.1059,45.5241 -3.04214,48.6722 -4.39052,4.3905 -6.13436,4.5514 -9.78279,0.903 z m 1332.48918,-80.1151 c 0,-1.2662 2.0355,-2.3022 4.5233,-2.3022 7.8162,0 9.2896,-7.4354 9.2896,-46.8784 0,-31.451 -0.6213,-38.5939 -3.6177,-41.5902 -1.9897,-1.9897 -5.0976,-3.6177 -6.9065,-3.6177 -1.8088,0 -3.2887,-1.036 -3.2887,-2.3022 0,-1.4006 10.3144,-2.3021 26.3389,-2.3021 15.076,0 26.9474,0.9844 27.7618,2.3021 0.7825,1.2662 -0.6516,2.3022 -3.1869,2.3022 -9.7787,0 -11.7772,7.7303 -11.7772,45.5557 0,19.9462 1.0375,37.261 2.3832,39.7755 1.8159,3.393 4.8571,4.453 12.7762,4.453 14.7119,0 23.5231,-5.2943 28.8489,-17.3343 2.4575,-5.5555 5.4746,-10.723 6.7048,-11.4832 2.5802,-1.5947 2.9189,9.3836 0.7726,25.0429 l -1.464,10.6811 h -44.5792 c -28.1847,0 -44.5791,-0.8467 -44.5791,-2.3022 z m 99.4532,-0.4604 c -3.9066,-3.9067 -3.4278,-10.9397 0.8568,-12.5838 1.9907,-0.7639 6.596,0.8118 10.234,3.5015 14.1658,10.4732 19.6397,-3.9968 5.715,-15.1074 -9.2943,-7.4159 -9.7964,-9.0201 -3.4533,-11.0334 6.8899,-2.1868 6.3186,-12.6618 -0.6906,-12.6618 -2.9123,0 -6.5382,1.2431 -8.0576,2.7626 -2.1487,2.1486 -2.7626,1.9219 -2.7626,-1.0206 0,-5.3836 8.9545,-10.9507 17.614,-10.9507 11.7021,0 18.0859,9.3692 12.4512,18.2742 -1.365,2.1573 -0.9518,4.9417 1.1863,7.9943 5.16,7.3668 4.0316,18.5293 -2.6792,26.5045 -5.1022,6.0637 -7.521,7.0832 -16.8057,7.0832 -5.9652,0 -12.0889,-1.2432 -13.6083,-2.7626 z m 603.9726,-60.7592 c -3.1482,-3.1481 -3.5776,-10.02 -3.0421,-48.6722 0.5329,-38.472 1.1628,-45.3465 4.3393,-47.3482 2.0436,-1.2879 5.4106,-1.6913 7.482,-0.8965 3.3158,1.2724 3.7661,7.0412 3.7661,48.2513 0,33.3352 -0.7951,47.6011 -2.7626,49.5686 -3.6484,3.6485 -5.3923,3.4875 -9.7827,-0.903 z m -2035.91498,-8.3056 c -1.96149,-1.9615 -2.76259,-15.899 -2.76259,-48.0634 0,-38.5245 0.54542,-45.7535 3.6462,-48.327 2.64447,-2.1947 4.70006,-2.3619 7.48201,-0.6088 3.32441,2.095 3.9192,8.3003 4.46126,46.5433 0.61986,43.7308 -0.65528,53.2185 -7.15248,53.2185 -1.60149,0 -4.15498,-1.2432 -5.6744,-2.7626 z m 839.82728,-107.5158 c 0,-1.1423 3.1079,-3.1604 6.9065,-4.4846 l 6.9065,-2.4075 v -41.0982 c 0,-42.5029 -0.8546,-46.6234 -9.6691,-46.6234 -2.2791,0 -4.1439,-1.036 -4.1439,-2.3021 0,-1.4014 10.3597,-2.3022 26.4748,-2.3022 16.1151,0 26.4748,0.9008 26.4748,2.3022 0,1.2661 -2.0355,2.3021 -4.5233,2.3021 -2.4878,0 -5.5957,2.0039 -6.9065,4.453 -2.7068,5.0578 -3.2591,78.1145 -0.6212,82.1872 0.9302,1.4362 3.6774,2.9902 6.1049,3.4532 2.4274,0.463 4.8447,2.1368 5.3717,3.7196 0.7297,2.1916 -5.3989,2.8777 -25.7085,2.8777 -14.6667,0 -26.6667,-0.9347 -26.6667,-2.077 z m 57.554,-0.2974 c 0,-1.306 1.5539,-2.9708 3.4532,-3.6996 2.7599,-1.059 3.4532,-6.08 3.4532,-25.0052 0,-18.9252 -0.6933,-23.9461 -3.4532,-25.0052 -8.1316,-3.1203 -2.6003,-6.0739 11.3749,-6.0739 14.2557,0 21.6027,3.1369 14.0948,6.018 -2.9447,1.1299 -3.5992,5.7322 -3.5992,25.3074 v 23.9264 h 7.9679 c 8.2117,0 17.3558,-6.9714 17.3558,-13.2318 0,-1.7353 1.036,-2.5148 2.3022,-1.7322 2.9988,1.8533 2.9528,11.7488 -0.081,17.4175 -2.1338,3.9869 -5.0253,4.453 -27.6259,4.453 -15.8058,0 -25.2427,-0.8877 -25.2427,-2.3744 z m 61.364,-1.8357 c -4.6817,-5.1732 -4.8086,-8.2104 -0.4926,-11.7924 2.642,-2.1927 4.7177,-1.7182 10.1936,2.3303 8.1366,6.0157 14.1148,4.5737 14.1148,-3.4046 0,-3.8239 -2.6694,-7.7466 -8.0802,-11.8736 l -8.0802,-6.1631 6.0911,-5.6451 c 5.6637,-5.2489 5.8242,-5.912 2.2876,-9.4486 -3.2166,-3.2166 -4.5428,-3.3418 -8.5948,-0.8113 -7.5196,4.696 -8.5037,0.5883 -1.3368,-5.5803 7.4624,-6.4229 14.5405,-7.0642 21.8054,-1.9757 5.1298,3.5931 6.993,13.402 3.0129,15.8619 -1.157,0.7151 0.073,5.2735 2.7329,10.1299 4.3537,7.9484 4.5246,9.583 1.7116,16.3742 -5.8305,14.0759 -26.9889,21.2543 -35.3653,11.9984 z m 1076.3625,-30.7827 c -1.9559,-1.956 -2.7626,-15.6081 -2.7626,-46.7543 0,-48.3443 1.4571,-54.8565 11.1176,-49.6864 4.8647,2.6035 4.9975,3.8602 4.9975,47.2974 0,24.5425 -0.6287,46.2615 -1.3974,48.2643 -1.6532,4.3084 -8.055,4.7791 -11.9551,0.879 z M 807.92011,1117.4243 c -0.76857,-2.0028 -1.39738,-23.6314 -1.39738,-48.0634 0,-36.9215 0.59036,-44.9119 3.49642,-47.3237 2.86133,-2.3747 4.32491,-2.152 8.05756,1.226 4.24416,3.8409 4.56112,7.1906 4.56112,48.2026 0,45.353 -0.80683,49.6 -9.42275,49.6 -2.14368,0 -4.52641,-1.6387 -5.29497,-3.6415 z m 2275.43699,-30.8909 c 0,-1.2661 1.3935,-2.3021 3.0964,-2.3021 1.7032,0 4.8111,-1.8945 6.9065,-4.2101 5.5291,-6.1095 5.6949,-78.756 0.1934,-84.25857 -1.9898,-1.98973 -5.0977,-3.61768 -6.9065,-3.61768 -1.8088,0 -3.2888,-1.03597 -3.2888,-2.30215 0,-3.80243 67.6602,-2.95082 77.0433,0.96971 18.8807,7.88883 20.1176,35.36299 2.0261,44.99599 l -7.2614,3.8664 11.2188,17.4092 c 6.1703,9.575 14.3588,20.0513 18.1967,23.2806 3.8377,3.2293 6.9779,6.4564 6.9779,7.1712 0,0.7148 -7.604,1.2997 -16.8979,1.2997 h -16.8978 l -15.4742,-23.0216 c -8.5108,-12.6619 -16.4464,-23.0216 -17.6345,-23.0216 -1.1882,0 -2.1604,8.3778 -2.1604,18.6173 0,18.5717 0.023,18.6236 6.9065,21.2241 3.7986,1.4338 6.9065,3.4158 6.9065,4.4044 0,0.9886 -11.9137,1.7974 -26.4748,1.7974 -16.1151,0 -26.4748,-0.9008 -26.4748,-2.3022 z m 61.502,-58.9923 c 1.6271,-2.2253 2.9585,-8.3493 2.9585,-13.6088 0,-11.515 -5.4711,-17.4621 -16.539,-17.97817 l -7.6337,-0.35594 -0.6738,19.30911 -0.6736,19.3091 9.8016,-1.3147 c 5.4474,-0.7306 11.1158,-3.1119 12.76,-5.3606 z m -1108.2715,39.1111 c -0.7948,-2.0714 -0.391,-5.4383 0.8975,-7.482 2.0454,-3.2445 10.2303,-3.7935 64.5146,-4.3279 66.6811,-0.6563 69.7791,-0.1487 66.2846,10.8612 -1.4611,4.6036 -3.0154,4.7148 -65.8739,4.7148 -57.4781,0 -64.5325,-0.4036 -65.8228,-3.7661 z m 808.6559,-87.33812 c -3.034,-3.03417 -3.6072,-10.68777 -3.5777,-47.76522 0.023,-24.28365 0.9134,-45.53771 1.9869,-47.23122 1.0735,-1.69351 4.4246,-2.72949 7.4468,-2.30216 l 5.4951,0.77696 0.6218,47.66395 c 0.5905,45.24666 0.3943,47.78585 -3.8688,50.06738 -3.4107,1.82536 -5.3599,1.53442 -8.1041,-1.20969 z M 809.28532,970.9651 c -2.91732,-2.91732 -4.13666,-87.66858 -1.36521,-94.89085 0.76856,-2.00285 3.15129,-3.64153 5.29497,-3.64153 8.62047,0 9.42275,4.2395 9.42275,49.7924 0,37.17338 -0.57973,44.84694 -3.61768,47.88489 -4.34194,4.34194 -6.09406,4.49586 -9.73483,0.85509 z M 2081.4131,943.22409 c -1.8353,-2.84892 -4.4627,-8.28777 -5.8387,-12.08633 -1.3761,-3.79856 -6.2875,-15.71223 -10.9143,-26.47482 -4.6268,-10.76259 -9.7865,-23.29499 -11.466,-27.84976 -5.3454,-14.49701 -12.4003,-26.78881 -16.2157,-28.25292 -8.8813,-3.40809 0.7607,-6.05559 22.0542,-6.05559 18.8081,0 22.8857,0.61527 22.8857,3.45323 0,1.89928 -2.0108,3.45324 -4.4684,3.45324 -2.4576,0 -5.0174,0.8882 -5.6883,1.9738 -1.051,1.70049 20.0225,54.70253 22.8895,57.56952 0.9054,0.90542 4.3488,-6.20703 18.2388,-37.67282 6.6746,-15.12046 6.6008,-16.88515 -0.8962,-21.44435 -3.8705,-2.35379 -6.3503,-4.96653 -5.5107,-5.80611 2.4911,-2.49112 30.2868,-1.73463 31.8953,0.86805 0.814,1.31702 -0.9889,4.33656 -4.0063,6.7101 -3.4024,2.67626 -13.3026,21.87974 -26.0635,50.55508 -11.3175,25.43173 -21.248,46.23954 -22.0678,46.23954 -0.8199,0 -2.9923,-2.33094 -4.8276,-5.17986 z m 79.9297,-0.64193 c -5.0648,-1.82462 -9.4466,-3.33311 -9.7374,-3.35218 -0.2908,-0.0184 -2.6217,-4.13727 -5.1799,-9.15158 -6.1312,-12.01823 -5.8694,-20.25154 0.9638,-30.30743 8.2064,-12.07682 18.8316,-16.34173 37.6332,-15.1058 l 15.457,1.01608 0.7326,8.64313 c 0.9347,11.02748 -3.1135,15.76086 -6.3036,7.37048 -1.2588,-3.31101 -5.4412,-7.65021 -9.2941,-9.64264 -6.3108,-3.26342 -7.6815,-3.27302 -13.8235,-0.0969 -8.2437,4.263 -12.9426,17.48664 -10.6176,29.88013 2.9924,15.95071 14.527,21.3632 29.2747,13.73684 7.3099,-3.78008 10.5195,-3.19383 7.6788,1.40257 -2.2559,3.65021 -15.8578,9.15018 -22.3216,9.02586 -2.8896,-0.0555 -9.3977,-1.59394 -14.4624,-3.41859 z m 50.7189,1.33297 c -0.7433,-1.20265 0.7495,-3.31103 3.3173,-4.68531 4.0974,-2.19283 4.6688,-4.76942 4.6688,-21.05045 0,-16.61569 -0.4805,-18.67745 -4.6043,-19.75585 -2.5324,-0.66224 -4.6043,-2.07073 -4.6043,-3.13 0,-1.56528 19.1066,-11.35 22.1632,-11.35 0.4721,0 0.8584,11.87722 0.8584,26.39383 0,24.15917 0.3953,26.60537 4.6688,28.89247 7.6076,4.07146 2.8903,6.87197 -11.5753,6.87197 -7.4477,0 -14.1494,-0.98399 -14.8926,-2.18666 z m -568.7242,-41.24351 c -20.9443,-9.51478 -34.0086,-35.97488 -28.696,-58.12013 8.2149,-34.24359 41.1291,-53.12228 73.7349,-42.29237 11.1639,3.70804 12.3614,3.73256 14.8681,0.30448 1.4994,-2.0506 3.4008,-3.05383 4.2252,-2.22939 2.1009,2.10091 1.8831,35.26398 -0.2316,35.26398 -0.9518,0 -4.1684,-4.59541 -7.148,-10.21203 -12.1656,-22.93249 -42.574,-22.58281 -52.781,0.60692 -5.0413,11.45374 -4.9281,44.41943 0.1934,56.31887 5.2284,12.1475 20.3903,19.0662 33.8438,15.44357 5.096,-1.37222 12.8713,-5.66091 17.2784,-9.5304 6.8028,-5.97289 8.2311,-6.46684 9.4576,-3.27061 1.9235,5.01239 -4.9507,12.43255 -16.3799,17.68085 -12.2801,5.63904 -35.9928,5.65682 -48.365,0.0364 z m 78.4548,-0.049 c -0.6935,-1.12223 0.7993,-2.5792 3.3174,-3.23771 4.1464,-1.08436 4.5784,-3.17295 4.5784,-22.1323 0,-17.07407 -0.6368,-20.93495 -3.4532,-20.93495 -6.3067,0 -3.5721,-4.49287 4.8855,-8.02666 14.7439,-6.16039 14.6829,-6.25527 14.6829,22.83554 0,24.36105 0.3451,26.42924 4.6377,27.79166 2.5508,0.80957 4.0436,2.43333 3.3174,3.60838 -1.6858,2.72766 -30.2865,2.81356 -31.9661,0.096 z m 1122.2214,-73.77945 c -3.5096,-6.55777 -3.171,-90.52904 0.3794,-94.0794 3.9001,-3.90011 10.3019,-3.42946 11.9551,0.87894 2.7716,7.22226 1.5521,91.97352 -1.3652,94.89084 -4.034,4.03398 -8.2537,3.38369 -10.9693,-1.69038 z m -2036.09359,-8.3973 c -0.76857,-2.00283 -1.39738,-23.15552 -1.39738,-47.00595 0,-23.85043 0.62881,-45.00312 1.39738,-47.00595 1.93992,-5.05534 9.4595,-4.56065 12.33458,0.81144 1.3914,2.59987 2.38314,21.82354 2.38314,46.19451 0,24.37097 -0.99174,43.59463 -2.38314,46.19451 -2.87508,5.37208 -10.39466,5.86677 -12.33458,0.81144 z M 2105.4004,775.28164 c -1.8493,-1.8492 -2.7626,-12.1247 -2.7626,-31.07913 v -28.31655 h -27.3441 c -28.4294,0 -34.2973,-1.87773 -31.188,-9.98027 2.208,-5.75406 8.5836,-6.62681 35.6123,-4.87503 l 25.2219,1.63472 v -27.6402 c 0,-22.41068 0.6899,-28.21272 3.6462,-30.66629 2.6759,-2.22077 4.667,-2.37021 7.482,-0.56152 3.2783,2.10629 3.7684,6.52096 3.3722,30.3701 l -0.4637,27.90554 h 25.3632 c 26.7943,0 34.2692,1.99664 34.2692,9.15377 0,7.08496 -4.2728,8.03794 -32.8058,7.31691 l -27.0503,-0.68356 v 26.28201 c 0,22.53786 -0.5998,26.8248 -4.2101,30.09205 -5.026,4.54853 -5.5781,4.61177 -9.1424,1.04745 z M 869.73357,750.25896 c -0.76886,-1.24404 1.78769,-3.37241 5.68122,-4.72972 l 7.07916,-2.4678 v -42.13951 -42.13951 l -7.07916,-2.4678 c -12.65096,-4.41015 -5.01648,-7.19125 19.74103,-7.19125 24.02612,0 31.99638,2.61898 20.85794,6.8538 l -5.89392,2.24088 v 42.70388 42.70389 l 6.2657,2.3822 c 4.32181,1.64317 7.8929,1.6408 11.51079,-0.007 4.91715,-2.24041 5.24509,-3.74271 5.24509,-24.02781 0,-16.42523 -0.8319,-22.32838 -3.45323,-24.50389 -6.33188,-5.25498 -3.5794,-6.90648 11.51079,-6.90648 8.23021,0 14.96403,0.59198 14.96403,1.31553 0,0.72352 -1.59015,2.90566 -3.53366,4.84917 -2.7903,2.79031 -3.39566,8.2039 -2.87769,25.73484 l 0.65595,22.20047 7.63239,0.73261 c 8.53951,0.81969 13.49049,-2.33335 17.26884,-10.9977 2.48849,-5.7065 2.57109,-5.6323 3.36681,3.02517 1.45211,15.79891 3.89447,15.12255 -54.56264,15.10959 -32.19585,-0.007 -53.52995,-0.89913 -54.37944,-2.27365 z m 120.96181,-0.7232 c 0,-1.7516 2.07194,-3.72655 4.60431,-4.38879 4.13137,-1.08038 4.60432,-3.14017 4.60432,-20.05238 0,-16.9122 -0.47295,-18.97199 -4.60432,-20.05237 -2.53237,-0.66224 -4.60431,-2.08 -4.60431,-3.1506 0,-2.40575 18.91382,-11.03219 21.29492,-9.71246 0.9497,0.52632 1.7267,12.25504 1.7267,26.06382 0,22.8663 0.4166,25.32986 4.6688,27.60555 7.8045,4.17685 2.76,6.87196 -12.8623,6.87196 -11.09015,0 -14.82812,-0.80283 -14.82812,-3.18473 z M 2467.8752,698.19774 c -0.8652,-0.8652 1.5756,-2.89703 5.4241,-4.51515 l 6.9969,-2.94207 -0.6278,-42.07473 -0.6278,-42.07472 -6.9065,-3.48207 -6.9064,-3.48203 14.3885,-0.6854 c 7.9136,-0.37696 20.8633,-0.36243 28.7769,0.0322 13.5756,0.67716 14.0925,1.89081 2.3022,5.40602 -2.1682,0.6464 -2.8777,11.40498 -2.8777,43.63129 v 42.77331 l 6.9449,2.92006 c 3.8195,1.60606 6.2368,3.628 5.3716,4.49319 -2.0526,2.05256 -50.2063,2.05256 -52.2589,0 z m 56.0575,-0.48274 c 0,-1.13073 1.554,-2.65215 3.4532,-3.38099 2.7679,-1.06215 3.4533,-6.15075 3.4533,-25.64229 0,-19.49155 -0.6854,-24.58015 -3.4533,-25.6423 -7.6995,-2.95459 -2.6194,-5.43684 11.1271,-5.43684 16.7106,0 19.3305,1.34922 12.8474,6.61672 -4.1142,3.34297 -4.5343,6.05427 -3.9307,25.36967 0.8025,25.68606 3.2635,29.02865 16.6667,22.6371 4.5,-2.14584 8.1816,-5.34538 8.1816,-7.11012 0,-1.76472 1.554,-4.49826 3.4533,-6.07452 2.9338,-2.43495 3.4484,-1.8715 3.4217,3.7469 -0.081,16.99034 -0.051,16.97252 -29.0139,16.97252 -14.4136,0 -26.2064,-0.92514 -26.2064,-2.05585 z m 61.2093,0.0808 c -0.6713,-1.08632 2.9344,-7.54424 8.0129,-14.3509 12.8028,-17.15966 14.7875,-27.48733 6.3082,-32.82682 -2.9673,-1.86854 -4.9674,-1.48065 -8.4045,1.62984 -2.9765,2.69371 -5.0314,3.23934 -6.0418,1.60437 -2.426,-3.92552 11.4261,-16.23961 18.2678,-16.23961 6.6514,0 17.3387,9.20463 17.3387,14.93332 0,6.6075 -6.2485,18.33858 -13.8115,25.92999 l -7.4542,7.48202 h 8.3306 c 4.582,0 8.3308,-1.03597 8.3308,-2.30216 0,-1.26619 1.5738,-2.30216 3.4972,-2.30216 3.3292,0 3.2834,4.3497 -0.1634,15.53957 -1.0238,3.32277 -32.2061,4.14545 -34.2103,0.90254 z m 259.2511,-16.90266 c -4.3366,-4.33652 -3.8407,-89.29418 0.5558,-95.21466 2.656,-3.57675 4.1496,-3.95964 7.482,-1.91814 3.7401,2.29116 4.2302,6.97538 4.8175,46.04317 0.3596,23.92087 0.081,45.82345 -0.6195,48.67237 -1.3855,5.63646 -7.7576,6.89538 -12.2358,2.41726 z m 924.0582,695.13666 -1.6327,-200.8633 -58.5653,-58.7213 c -32.2108,-32.2967 -58.5653,-60.2756 -58.5653,-62.1752 0,-1.8996 26.4279,-29.8635 58.7286,-62.14198 l 58.7285,-58.68811 -1.2351,-134.67626 c -0.6794,-74.07194 -1.8406,-156.69065 -2.5805,-183.59712 l -1.3454,-48.92087 -101.6157,0.002 c -55.8885,10e-4 -162.8252,0.68703 -237.637,1.52412 l -136.0214,1.52198 -3.7928,8.75486 c -2.2099,5.10063 -6.6931,10.25459 -10.7412,12.34797 l -6.9484,3.59309 v 74.38425 c 0,40.91134 0.6854,113.35957 1.5231,160.99603 l 1.5231,86.6118 22.6496,9.55744 c 15.6452,6.60183 22.6387,10.72513 22.6143,13.33334 -0.071,7.71529 1.3772,6.9242 -54.0655,29.51118 -13.928,5.6742 -26.1746,11.13655 -27.2147,12.13857 -1.0401,1.00201 2.895,3.76798 8.7443,6.14664 57.859,23.52787 71.4486,30.04627 72.1112,34.58867 0.9277,6.3625 -3.2912,8.7675 -46.1148,26.2871 -19.9185,8.1488 -36.2258,15.334 -36.2389,15.9671 -0.023,0.6331 11.1037,5.6911 24.7042,11.24 71.9272,29.3461 72.044,29.5355 29.0491,47.1804 -44.4692,18.25 -54.1205,22.7832 -52.1916,24.5142 1.0052,0.9019 6.8246,3.4998 12.9322,5.7732 6.1076,2.2734 13.6184,6.1107 16.6906,8.5274 l 5.586,4.3939 v 195.2516 195.2516 l 5.7075,3.7397 c 3.139,2.0568 7.3096,6.8378 9.2678,10.6245 l 3.5603,6.8848 h 242.0091 242.0093 z m -412.727,-92.9747 c -0.7949,-2.0714 -0.3925,-5.4383 0.8942,-7.482 1.9151,-3.0421 7.7214,-3.8427 32.0212,-4.415 35.0701,-0.8259 48.3073,0.6775 50.2367,5.7057 3.3207,8.6534 -2.2821,9.9574 -42.7798,9.9574 -33.9157,0 -39.1132,-0.4848 -40.3723,-3.7661 z m 7.8317,-193.5224 c -0.5974,-1.0165 -6.9617,-15.8338 -14.1426,-32.9273 -7.1809,-17.0935 -15.8517,-37.6499 -19.2686,-45.6807 -3.4166,-8.0309 -8.0251,-15.57814 -10.2409,-16.77168 -8.8543,-4.76935 -3.2398,-6.61239 20.1439,-6.61239 14.5802,0 24.1726,0.91356 24.1726,2.30216 0,1.26618 -2.1044,2.30215 -4.6766,2.30215 -2.5719,0 -5.1849,1.32492 -5.8062,2.94426 -1.0001,2.60593 14.9324,44.2572 21.2026,55.4291 2.1353,3.8044 2.802,3.2997 6.0825,-4.6043 2.0266,-4.8823 6.8448,-16.4951 10.7074,-25.8061 8.6146,-20.76696 8.8191,-25.12223 1.2673,-27.0176 -11.2053,-2.81234 -5.5277,-5.54967 11.5108,-5.54967 9.4964,0 17.2662,0.62789 17.2662,1.39529 0,0.7674 -2.6657,3.49205 -5.9235,6.05475 -6.143,4.83202 -7.9249,8.34393 -29.5104,58.16143 -7.1323,16.4605 -13.8061,31.4204 -14.8307,33.2443 -2.2543,4.013 -6.4629,5.6725 -7.9538,3.1363 z m 75.1777,-5.1128 c -10.3779,-6.3281 -14.6572,-13.6236 -14.6572,-24.9879 0,-20.2418 10.9827,-30.4525 32.7547,-30.4525 17.6787,0 27.8731,7.7033 30.5305,23.0699 2.0713,11.9763 -3.1765,25.3136 -12.4026,31.5222 -9.9177,6.6741 -26.0517,7.0519 -36.2254,0.8483 z m 25.469,-4.6142 c 7.622,-8.4225 7.564,-35.0374 -0.092,-42.6946 -4.8423,-4.8423 -11.5145,-4.4199 -17.0113,1.077 -6.8978,6.8978 -6.6383,33.2217 0.4012,40.715 6.0952,6.488 11.3895,6.7741 16.7033,0.9026 z m -73.521,-148.09241 c -0.5611,-1.58273 -1.3056,-9.09353 -1.6544,-16.69065 l -0.6342,-13.81295 -16.0939,-1.15108 c -13.1249,-0.93873 -16.2392,-1.91475 -16.8808,-5.29045 -1.4868,-7.82144 3.9079,-10.82465 19.4435,-10.82465 h 14.6823 v -14.68216 c 0,-17.52518 4.0025,-23.19187 11.554,-16.35789 3.5348,3.19903 4.5611,7.09306 4.5611,17.30721 v 13.17944 l 13.8827,1.00418 c 27.0888,1.95944 27.7882,15.66432 0.7995,15.66432 h -14.6822 v 11.36092 c 0,15.04111 -3.2364,23.17146 -9.2239,23.17146 -2.6035,0 -5.1927,-1.29497 -5.7537,-2.8777 z M 1991.1115,1432.5432 c 6.4016,-1.9509 13.6534,-5.0394 16.1151,-6.8632 4.4297,-3.2819 4.4291,-3.3508 -0.057,-6.6741 -18.7429,-13.884 -65.6827,-10.6173 -65.6827,4.571 0,14.1768 20.4207,17.8664 49.6249,8.9663 z m 7.3536,-71.7022 c 5.3813,-2.7768 9.7842,-5.9221 9.7842,-6.9896 0,-1.0675 -6.0864,-4.6724 -13.5253,-8.0108 -17.5131,-7.8594 -38.1097,-8.4263 -47.1714,-1.2983 -7.4847,5.8874 -7.8716,14.3775 -0.8861,19.443 7.6357,5.537 38.6193,3.6562 51.7986,-3.1443 z m -4.2719,-68.8117 14.7209,-6.0087 -5.121,-4.1467 c -11.1939,-9.0642 -47.0604,-12.3768 -57.1898,-5.2819 -5.8794,4.1181 -6.7271,12.9331 -1.6492,17.1475 9.6611,8.018 26.8703,7.4202 49.2391,-1.7102 z M 636.78203,1247.6421 c 24.62655,-3.561 43.15856,-13.2873 62.86485,-32.9935 12.63654,-12.6366 18.83556,-21.0692 24.07797,-32.7535 16.39256,-36.5359 12.83773,-78.1664 -9.43947,-110.5452 -41.02906,-59.6337 -120.59119,-68.6654 -173.14357,-19.6548 -58.20871,54.2858 -43.58123,149.8171 28.38069,185.3527 24.20028,11.9504 40.32126,14.4897 67.25953,10.5943 z m 5.04486,-57.6596 c -9.53651,-2.7731 -25.22328,-16.6133 -32.01527,-28.2467 -3.07973,-5.2749 -6.25795,-15.2887 -7.0627,-22.2527 -0.80474,-6.964 -2.64391,-15.0812 -4.08702,-18.0381 -5.14083,-10.5337 -23.96618,-15.2529 -37.0551,-9.2892 -6.12088,2.7889 -9.53128,9.4623 -11.95529,23.3938 l -1.51869,8.7284 -16.41655,-0.6708 -16.41655,-0.6709 0.61362,-12.6618 c 1.31405,-27.1149 20.1538,-50.0046 45.48535,-55.2634 37.20451,-7.7237 68.13921,13.9265 74.98868,52.4821 3.36847,18.961 4.08202,20.7359 10.86531,27.0257 16.19598,15.0178 41.85998,0.062 41.85998,-24.3943 v -6.7566 h 16.43207 16.43207 l -1.50812,12.8317 c -4.13247,35.1609 -26.1082,56.4962 -57.7073,56.0254 -7.66506,-0.1142 -17.08559,-1.1233 -20.93449,-2.2426 z m 3138.39421,-35.2848 c 1.0125,-1.7614 23.4383,-25.2157 49.835,-52.1207 l 47.9941,-48.918 -32.0864,-32.4837 c -17.6474,-17.866 -41.0102,-41.80732 -51.9173,-53.20301 l -19.831,-20.71942 -52.9036,52.94963 -52.9039,52.9496 52.204,52.3741 c 28.7123,28.8058 53.4559,52.3742 54.9861,52.3742 1.53,0 3.6105,-1.4412 4.623,-3.2027 z m -13.4167,-25.9212 c -2.3766,-2.8584 -3.4448,-16.1236 -4.3106,-53.5252 l -1.1511,-49.7251 -4.7413,13.6485 c -5.4844,15.7877 -10.5243,20.4179 -16.1264,14.8158 -4.2247,-4.2246 -3.6355,-6.9979 8.2461,-38.824 4.0182,-10.7626 9.0864,-25.02208 11.2629,-31.68779 7.6459,-23.41541 13.9999,-22.65842 24.433,2.91085 4.1331,10.1295 10.8572,26.18704 14.9426,35.68344 4.0852,9.4964 7.5624,19.8561 7.727,23.0216 0.2523,4.8515 -0.7222,5.7554 -6.2043,5.7554 -5.9859,0 -7.0858,-1.4668 -13.813,-18.4173 l -7.3093,-18.4172 -0.6175,56.2173 c -0.5849,53.2861 -1.666,62.3438 -7.4401,62.3438 -0.9561,0 -3.1602,-1.7101 -4.898,-3.8001 z M 2198.2492,508.61229 c 6.7607,-7.47053 5.5736,-30.14335 -2.523,-48.18489 l -6.4884,-14.45819 -4.106,5.07066 c -9.0263,11.147 -12.3182,47.03572 -5.2412,57.13959 4.4748,6.38868 12.7912,6.58475 18.3586,0.43283 z m 70.1643,-2.27175 c 4.2578,-10.27934 1.874,-37.96309 -4.3075,-50.02293 -2.7583,-5.38129 -5.8142,-9.78417 -6.7909,-9.78417 -0.9766,0 -4.5815,5.7208 -8.0107,12.71286 -8.3146,16.95319 -8.9099,40.54592 -1.2294,48.7215 7.3738,7.84898 16.7231,7.10094 20.3385,-1.62726 z m 67.3417,2.92671 c 8.2483,-9.19171 6.9809,-30.04233 -3.2751,-53.88302 -2.6388,-6.13413 -5.7645,-11.15295 -6.9459,-11.15295 -1.1815,0 -4.3302,4.92087 -6.9971,10.93525 -6.4744,14.60078 -7.1105,42.81414 -1.17,51.89196 4.7369,7.23859 12.9855,8.22939 18.3881,2.20876 z m -1096.3485,-4.60431 c 4.3248,-5.45773 4.8699,-8.42724 3.9521,-21.52956 -1.089,-15.54596 -9.648,-37.41325 -14.0673,-35.94014 -4.3763,1.45876 -12.7462,28.02908 -12.8658,40.84234 -0.2015,21.58789 12.0347,30.44116 22.981,16.62736 z m 65.7642,2.26691 c 4.908,-3.27719 7.8259,-11.86792 7.7559,-22.83499 -0.074,-11.6151 -8.4089,-35.45052 -12.9099,-36.91889 -4.1918,-1.3675 -12.6823,18.95287 -13.9335,33.3472 -1.3852,15.93428 1.7222,25.14618 8.9484,26.52759 2.9171,0.55765 5.8218,1.13915 6.4549,1.2922 0.6331,0.15309 2.291,-0.48285 3.6842,-1.41311 z m 77.2618,-10.07735 c 2.0729,-6.91898 2.0652,-12.47496 -0.033,-23.863 -2.6087,-14.15837 -10.2783,-31.06038 -14.0941,-31.06038 -3.0628,0 -11.0955,21.39783 -11.6669,31.07914 -1.6017,27.13559 2.4877,35.88713 15.8527,33.92557 6.0884,-0.8936 7.669,-2.49639 9.9415,-10.08133 z M 434.71413,1590.6899 c -0.78806,-1.2752 0.1867,-2.8291 2.1663,-3.4533 1.97954,-0.6241 5.17657,-1.6293 7.10453,-2.2337 3.00169,-0.9409 3.41518,-7.139 2.8777,-43.1366 l -0.62768,-42.0378 -6.90648,-3.4821 c -6.50346,-3.2788 -4.85785,-3.5191 28.19983,-4.1175 28.068,-0.5081 36.48345,0.077 41.97541,2.9166 15.27839,7.9008 17.93224,29.9876 4.52003,37.6182 -3.71386,2.1129 -6.75904,4.3658 -6.76705,5.0063 -0.007,0.6406 3.20274,2.5888 7.13496,4.3294 13.84573,6.1287 17.28214,28.3409 6.02123,38.92 -10.36448,9.7369 -20.36644,11.9889 -53.24869,11.9889 -18.33987,0 -31.60285,-0.9476 -32.45009,-2.3184 z m 60.43416,-13.0331 c 1.58687,-2.1702 2.88524,-8.2291 2.88524,-13.4642 0,-11.2339 -6.54535,-18.7933 -17.26618,-19.9412 l -6.90648,-0.7395 -0.69849,14.893 c -0.38416,8.1911 -0.0734,17.383 0.69032,20.4264 1.24066,4.9431 2.29684,5.3862 9.89958,4.1524 4.68091,-0.7596 9.80913,-3.1567 11.39601,-5.3269 z m -4.59677,-48.2507 c 3.89838,-2.4584 5.17986,-5.4433 5.17986,-12.0653 0,-10.2651 -4.85896,-15.7273 -14.96403,-16.8218 l -6.90648,-0.7481 -0.69403,14.7215 c -0.38172,8.0968 -0.12777,16.1971 0.56419,18.0005 1.39622,3.6385 8.10993,2.4064 16.82049,-3.0868 z M 294.8469,1138.9075 c -3.31003,-7.9136 -9.79507,-23.1942 -14.41121,-33.9568 -4.61614,-10.7626 -9.95612,-23.9629 -11.86663,-29.3339 -1.91051,-5.3711 -6.53419,-13.0419 -10.27484,-17.0463 -3.9459,-4.2241 -5.94568,-8.1362 -4.76339,-9.3185 3.21578,-3.2158 44.81337,-1.248 45.94718,2.1735 0.55291,1.6685 -1.00461,2.8777 -3.70668,2.8777 -2.56316,0 -5.22932,0.9207 -5.92479,2.046 -1.60057,2.5898 20.30096,55.7735 23.01336,55.8837 3.07474,0.1248 21.61474,-42.0983 21.67093,-49.3536 0.0368,-4.7594 -1.45303,-6.9591 -5.84444,-8.6287 -9.57712,-3.6413 -4.1167,-6.8538 11.64931,-6.8538 16.53604,0 20.23125,2.7604 12.1766,9.0961 -5.62106,4.4216 -9.00931,10.3151 -18.59412,32.3427 -23.41447,53.8106 -28.41146,64.3314 -30.58396,64.3918 -1.358,0.038 -5.1773,-6.4062 -8.48732,-14.3199 z m 70.62165,12.2782 c -2.00744,-2.0054 -0.85539,-23.2134 1.26098,-23.2134 1.22164,0 3.46279,2.3309 4.98035,5.1798 1.51756,2.849 4.40292,6.4419 6.41193,7.9844 4.32511,3.3207 13.19972,3.8263 15.03514,0.8565 2.37679,-3.8457 -1.06777,-8.1927 -13.64411,-17.2186 -14.4018,-10.3361 -18.09179,-17.9381 -14.68901,-30.262 3.02959,-10.9722 14.91929,-16.6347 27.08719,-12.9003 5.11784,1.5708 8.96117,1.663 10.65674,0.2558 1.4586,-1.2106 3.33366,-1.5193 4.16681,-0.6862 2.00559,2.0056 1.96132,23.769 -0.0484,23.769 -0.85971,0 -4.96135,-3.71 -9.11475,-8.2444 -4.49572,-4.9082 -9.2092,-7.9252 -11.64781,-7.4556 -8.12802,1.5653 -4.98381,7.7893 9.09428,18.0022 20.18468,14.6428 22.97743,26.4607 9.44983,39.9883 -5.67477,5.6747 -7.47236,6.1252 -22.10801,5.5404 -8.76206,-0.3502 -16.3631,-1.0683 -16.89119,-1.5959 z m 3571.44065,-20.8486 c -12.937,-10.1762 -16.7033,-30.254 -8.8988,-47.4378 8.5206,-18.76 26.2039,-25.2019 37.1619,-13.5378 5.3622,5.7079 5.5377,5.7358 7.2337,1.1511 1.3994,-3.7832 3.7707,-4.6986 12.1719,-4.6986 12.524,0 12.4888,-0.1959 5.6445,31.3947 -3.1713,14.6371 -4.0169,22.8782 -2.5027,24.3923 2.8422,2.8424 7.2921,0.3257 7.2921,-4.1243 0,-1.8245 1.5281,-3.3174 3.3956,-3.3174 2.587,0 3.0582,1.7818 1.9783,7.4821 -0.7798,4.1151 -2.4345,8.7769 -3.6777,10.3597 -3.2051,4.0808 -11.0455,3.5655 -14.342,-0.9428 -2.6026,-3.5592 -3.1666,-3.5592 -8.2479,0 -7.9786,5.5883 -29.7234,5.1669 -37.2089,-0.7212 z m 22.1861,-7.5447 c 1.8296,-2.8489 4.5394,-11.4579 6.022,-19.1312 2.263,-11.7125 2.1261,-15.3146 -0.8536,-22.446 -2.3655,-5.6613 -5.0422,-8.4947 -8.0249,-8.4947 -6.1744,0 -7.2702,4.1644 -7.2702,27.6259 0,27.5917 2.8151,33.8316 10.1267,22.446 z m 45.1251,7.4821 c 0,-1.2662 1.8647,-2.3022 4.1439,-2.3022 8.8168,0 9.669,-4.1171 9.669,-46.7036 v -41.1784 l -6.9064,-2.6069 c -3.7986,-1.4338 -6.9065,-3.4157 -6.9065,-4.4043 0,-0.9886 11.9137,-1.7975 26.4748,-1.7975 16.1151,0 26.4748,0.9009 26.4748,2.3022 0,1.2662 -1.48,2.3022 -3.2888,2.3022 -1.8088,0 -4.9167,1.6279 -6.9065,3.6176 -2.9963,2.9964 -3.6176,10.1393 -3.6176,41.5902 0,39.443 1.4734,46.8785 9.2897,46.8785 2.4877,0 4.5232,1.036 4.5232,2.3022 0,1.4013 -10.3597,2.3021 -26.4748,2.3021 -16.1151,0 -26.4748,-0.9008 -26.4748,-2.3021 z m 55.2518,0.073 c 0,-1.3064 1.5539,-2.3752 3.4532,-2.3752 2.8531,0 3.4533,-4.2564 3.4533,-24.4944 0,-20.6282 -0.6359,-24.9771 -4.0288,-27.5527 -3.4696,-2.6338 -1.7121,-3.0684 12.6619,-3.1315 15.6035,-0.068 21.303,2.2686 13.1563,5.3947 -2.9214,1.1211 -3.4203,5.4502 -2.8777,24.9675 0.5772,20.7508 1.1668,23.709 4.8675,24.4177 8.1174,1.5546 14.4044,-1.8171 19.4951,-10.4552 l 5.1357,-8.7144 -0.608,11.5107 -0.6078,11.5108 -27.0504,0.6486 c -17.4726,0.419 -27.0503,-0.1924 -27.0503,-1.7266 z m 64.4604,0.1955 c 0,-1.1185 2.072,-2.5755 4.6043,-3.2377 4.1587,-1.0875 4.6044,-3.1402 4.6044,-21.2035 0,-18.0633 -0.4457,-20.1159 -4.6044,-21.2034 -2.5323,-0.6623 -4.6043,-2.0336 -4.6043,-3.0473 0,-2.7727 19.9927,-9.8516 22.8448,-8.0888 1.5268,0.9437 2.479,11.2337 2.479,26.7922 0,20.3298 0.674,25.5188 3.4532,26.5853 7.9549,3.0525 2.4021,5.4368 -12.6619,5.4368 -8.8633,0 -16.1151,-0.9151 -16.1151,-2.0336 z M 464.80787,621.74928 c -0.69693,-1.12767 1.05487,-3.59668 3.89292,-5.48666 5.66661,-3.77366 8.7398,-9.33583 21.27519,-38.50616 4.62501,-10.76259 9.8301,-22.67626 11.56685,-26.47482 1.73675,-3.79856 5.74421,-12.86331 8.90548,-20.14388 3.16126,-7.28058 6.58544,-13.23741 7.60926,-13.23741 1.71964,0 5.79766,8.86943 33.19583,72.19877 5.40194,12.48628 11.69492,23.87218 13.98439,25.30196 2.28945,1.4298 4.16265,3.90439 4.16265,5.4991 0,2.13672 -6.02031,2.89945 -22.88571,2.89945 -23.25044,0 -30.82019,-2.6802 -19.60872,-6.94278 4.566,-1.73599 5.7149,-3.34858 4.50737,-6.32663 -0.89131,-2.19822 -2.65193,-6.8457 -3.91247,-10.32771 -2.21535,-6.11949 -2.85358,-6.33094 -19.10766,-6.33094 -16.79146,0 -16.81943,0.0115 -19.34313,7.25 -3.84619,11.03319 -3.14737,13.49282 4.60096,16.19389 5.23105,1.82356 6.30338,3.0078 4.02877,4.44931 -4.11814,2.60989 -31.25729,2.59712 -32.87198,-0.0161 z m 50.46282,-50.03467 c -3.14949,-7.12159 -5.72636,-13.51008 -5.72636,-14.19665 0,-2.75043 -2.42494,1.52594 -7.95143,14.02231 l -5.80346,13.12267 h 12.60381 12.60381 z M 2843.0756,530.49847 c -0.7947,-2.07134 -1.4451,-11.45112 -1.4451,-20.84397 v -17.07789 h -46.0431 c -49.1527,0 -50.7695,0.42774 -40.9842,10.84374 l 5.059,5.38509 -4.8956,4.89568 -4.8957,4.89565 -15.1273,-14.52606 c -8.3202,-7.98934 -15.0996,-16.17483 -15.0655,-18.18995 0.034,-2.01513 6.5086,-10.73448 14.3885,-19.37637 10.42,-11.42796 15.3765,-15.30293 18.1773,-14.21049 6.5451,2.55296 6.8255,8.16258 0.768,15.36161 -3.1735,3.7714 -5.7699,7.81357 -5.7699,8.98263 0,1.23014 19.8808,2.12552 47.1943,2.12552 h 47.1942 v -19.21154 c 0,-15.65394 0.7759,-19.91367 4.1897,-23.00309 3.4121,-3.08798 4.8951,-3.26099 7.9924,-0.93233 2.91,2.18774 3.9535,7.45457 4.4437,22.42753 l 0.6404,19.56835 35.1079,0.63551 35.1079,0.63549 V 382.2974 c 0,-84.73605 0.4439,-97.03001 3.6177,-100.20383 1.9897,-1.98973 4.3724,-3.61768 5.2949,-3.61768 6.7384,0 7.2025,7.0068 7.2025,108.73411 0,89.74418 -0.4516,103.38231 -3.4629,104.53776 -1.9043,0.73082 -21.3288,1.47529 -43.1654,1.65435 l -39.7026,0.32558 -1.1511,19.56834 c -1.1213,19.06284 -1.3069,19.58644 -7.188,20.26843 -3.9335,0.45618 -6.5402,-0.61198 -7.482,-3.06599 z M 809.28532,524.34639 c -1.67646,-1.67645 -2.76259,-9.82255 -2.76259,-20.71942 v -17.95684 h -67.45324 c -49.39409,0 -68.19285,-0.73961 -70.21582,-2.76259 -2.06623,-2.06623 -2.76259,-28.68876 -2.76259,-105.6174 0,-89.18255 0.46476,-103.24052 3.49643,-105.75657 2.86132,-2.3747 4.3249,-2.15201 8.05755,1.22601 4.40831,3.98946 4.56113,7.35549 4.56113,100.46161 v 96.33383 h 62.15827 62.15827 v -19.28646 c 0,-14.78866 0.85032,-19.99218 3.6462,-22.31255 2.6409,-2.19172 4.70382,-2.36107 7.48201,-0.61414 3.00211,1.88767 3.98039,6.73724 4.50098,22.31254 l 0.66518,19.90061 h 20.86828 20.86826 l -7.14495,-8.13766 c -8.33757,-9.49597 -8.9438,-13.75922 -2.4506,-17.23426 4.10969,-2.19944 6.69016,-0.58553 20.71942,12.95857 8.81379,8.50899 16.02507,17.32439 16.02507,19.58976 0,3.79517 -30.07811,31.96029 -34.13106,31.96029 -2.78428,0 -7.30779,-5.21495 -7.30779,-8.42482 0,-1.5948 2.83833,-5.53149 6.30741,-8.7482 l 6.30741,-5.84857 h -20.12036 -20.12036 v 16.26645 c 0,21.89917 -5.17605,30.58627 -13.35251,22.40981 z M 2416.6521,500.86438 c -8.8177,-8.81764 -10.3843,-19.68686 -4.4827,-31.09942 7.0326,-13.5992 28.1531,-16.25117 40.1528,-5.04168 5.7232,5.34616 7.1501,8.5405 7.1501,16.00679 0,17.73732 -9.6843,27.96165 -26.4847,27.96165 -6.6063,0 -10.2578,-1.7496 -16.3355,-7.82734 z m -1334.8662,1.04439 c -8.3608,-5.51148 -12.654,-12.97349 -12.654,-21.99403 0,-9.02055 4.2932,-16.48256 12.654,-21.99404 8.1182,-5.35162 15.0723,-5.65325 23.992,-1.04069 9.4155,4.86897 13.8383,12.23097 13.8383,23.03473 0,10.80375 -4.4228,18.16575 -13.8383,23.03472 -8.9197,4.61256 -15.8738,4.31093 -23.992,-1.04069 z m 2153.2365,-11.16058 c -15.0895,-7.88289 -24.512,-21.75376 -26.5676,-39.11063 -4.8711,-41.12861 35.7963,-73.10375 75.2656,-59.17823 8.8035,3.10605 10.2764,3.10552 13.7135,-0.005 5.6951,-5.15393 6.9304,-2.21695 6.9304,16.47721 0,19.46572 -3.4714,22.27445 -9.5728,7.74518 -5.2043,-12.39337 -16.1453,-19.05234 -29.1318,-17.73033 -19.1378,1.94825 -28.0775,16.50724 -28.02,45.63283 0.058,29.54926 9.7409,43.2783 30.58,43.35915 9.8061,0.038 19.0359,-4.01938 25.5715,-11.24116 2.4092,-2.66201 5.2556,-4.84001 6.3256,-4.84001 3.9036,0 1.8079,8.53518 -3.2658,13.30178 -14.5319,13.65193 -41.6944,16.10739 -61.8286,5.58922 z M 408.24937,424.73914 c 0,-0.91598 8.72603,-15.26214 28.05209,-46.11937 2.37905,-3.79856 9.38174,-15.19424 15.56149,-25.32374 l 11.23591,-18.41727 -10.49512,-0.71541 c -14.6273,-0.99711 -22.99721,3.10199 -28.54713,13.98075 -6.03159,11.8229 -8.50233,8.67693 -6.8021,-8.66102 l 1.35457,-13.81295 37.81154,-0.6345 c 20.79636,-0.34896 38.63233,0.18625 39.6355,1.18946 1.00316,1.00317 -2.1641,8.13122 -7.03832,15.84014 -7.49811,11.85871 -42.21249,69.086 -45.75664,75.43063 -0.64237,1.14995 6.87586,1.57748 17.21499,0.97895 21.80061,-1.262 28.65807,-5.13722 35.8987,-20.28669 l 4.95139,-10.35971 0.82998,9.20863 c 0.45649,5.06475 0.17013,13.61151 -0.63632,18.9928 l -1.46634,9.78418 h -45.90208 c -25.24616,0 -45.90211,-0.48369 -45.90211,-1.07488 z m 103.02157,-2.7799 c 4.82671,-3.36696 5.17986,-5.30155 5.17986,-28.37544 0,-23.07389 -0.35315,-25.00848 -5.17986,-28.37544 -4.9175,-3.43026 -4.3345,-3.61938 11.51079,-3.73403 l 16.69065,-0.12075 v 28.84923 c 0,23.52004 0.63791,29.09403 3.45324,30.17436 8.55763,3.28387 1.82863,5.42711 -16.69065,5.3161 -18.98403,-0.11373 -19.84564,-0.3288 -14.96403,-3.73403 z m 39.71223,1.79893 c 0,-1.13073 1.55396,-2.65216 3.45324,-3.381 5.40864,-2.07549 4.97008,-48.9274 -0.51472,-54.98804 -3.87476,-4.28155 -3.5235,-4.36938 14.95392,-3.73951 12.47752,0.42535 19.8662,-0.29928 21.69458,-2.12766 5.42291,-5.42291 17.13372,-3.2765 23.51769,4.31043 5.58023,6.63171 5.96004,8.61691 5.96004,31.15138 0,19.2703 0.68839,24.33245 3.45323,25.3934 8.29222,3.18202 2.08617,5.43685 -14.96402,5.43685 -10.74342,0 -18.41727,-0.95924 -18.41727,-2.30216 0,-1.26619 1.03597,-2.30216 2.30216,-2.30216 1.40132,0 2.30216,-10.35971 2.30216,-26.47482 0,-21.02131 -0.65679,-26.47482 -3.18847,-26.47482 -1.75364,0 -4.86156,2.55348 -6.90647,5.67441 -5.06132,7.72454 -5.25261,40.80745 -0.26477,45.79526 1.89928,1.89929 3.45323,4.04524 3.45323,4.76876 0,0.72355 -8.28777,1.31553 -18.41726,1.31553 -10.1295,0 -18.41727,-0.92515 -18.41727,-2.05585 z M 2844.3931,383.91474 c -4.3366,-4.33653 -3.8407,-89.29419 0.5558,-95.21467 2.6562,-3.57686 4.1494,-3.95967 7.482,-1.91793 3.7541,2.29991 4.2251,7.027 4.7887,48.04966 0.6223,45.28318 -0.3085,51.84553 -7.3529,51.84553 -1.4911,0 -3.9542,-1.24317 -5.4736,-2.76259 z M 807.92011,373.82716 c -2.77145,-7.22226 -1.55211,-91.97352 1.36521,-94.89084 3.64077,-3.64077 5.39289,-3.48685 9.73483,0.85509 3.03795,3.03795 3.61768,10.7115 3.61768,47.88489 0,45.5529 -0.80228,49.79239 -9.42275,49.79239 -2.14368,0 -4.52641,-1.63867 -5.29497,-3.64153 z m 419.89759,1.33937 c 0,-1.26618 1.4799,-2.30215 3.2888,-2.30215 1.8088,0 4.9167,-1.62795 6.9064,-3.61768 2.9964,-2.99636 3.6177,-10.13926 3.6177,-41.5902 0,-39.44297 -1.4734,-46.87845 -9.2896,-46.87845 -2.4878,0 -4.5233,-1.03598 -4.5233,-2.30216 0,-1.4075 10.7887,-2.30216 27.7617,-2.30216 17.9216,0 27.2575,0.816 26.339,2.30216 -0.7826,1.26618 -3.3972,2.30216 -5.8103,2.30216 -2.4131,0 -5.4599,2.00384 -6.7706,4.45297 -2.5328,4.73257 -3.3822,73.14238 -0.9858,79.38751 1.0331,2.69221 4.6058,3.64153 13.7047,3.64153 16.9849,0 22.5826,-3.18451 28.7522,-16.35695 2.903,-6.19792 6.137,-11.26895 7.1868,-11.26895 2.6554,0 2.3971,23.73917 -0.3366,30.92927 l -2.2452,5.90526 h -43.7979 c -27.6639,0 -43.798,-0.84807 -43.798,-2.30216 z m 102.6078,0.26174 c -0.6936,-1.12224 0.7992,-2.5792 3.3173,-3.23771 4.1464,-1.0843 4.5785,-3.17288 4.5785,-22.13224 0,-19.40017 -0.3376,-20.93495 -4.6044,-20.93495 -11.6138,0 -1.4593,-7.63253 14.3885,-10.81499 l 6.331,-1.27134 v 26.97812 c 0,24.99112 0.3372,27.06629 4.5784,28.1754 8.9133,2.33089 1.8575,5.27813 -12.636,5.27813 -8.0807,0 -15.2598,-0.91819 -15.9533,-2.04042 z m 845.8813,-0.21203 c 0,-1.29352 1.3934,-2.35186 3.0965,-2.35186 1.703,0 4.8109,-1.89452 6.9064,-4.21005 3.2303,-3.56938 3.8101,-10.15572 3.8101,-43.28058 0,-40.3913 -0.9116,-44.5957 -9.6691,-44.5957 -2.2791,0 -4.1439,-1.03598 -4.1439,-2.30216 0,-1.4075 10.7887,-2.30216 27.7618,-2.30216 17.9216,0 27.2574,0.816 26.3389,2.30216 -0.7825,1.26618 -3.3971,2.30216 -5.8102,2.30216 -2.4131,0 -5.4599,2.00384 -6.7706,4.45297 -2.5328,4.73257 -3.3823,73.14238 -0.9858,79.38751 1.0331,2.69221 4.6057,3.64153 13.7046,3.64153 17.2426,0 22.8818,-3.24234 28.5481,-16.41407 4.4704,-10.39162 6.8524,-12.89162 9.6333,-10.11064 0.6057,0.60565 -0.031,8.63443 -1.4151,17.84173 l -2.5163,16.74053 -44.2443,0.62525 c -28.9929,0.40974 -44.2444,-0.18546 -44.2444,-1.72662 z m 98.9928,-0.18786 c 0,-1.34216 3.571,-7.11705 7.9356,-12.83313 10.1964,-13.35387 13.9541,-24.2815 10.542,-30.65703 -3.0705,-5.7373 -5.3582,-5.87716 -13.1051,-0.8012 -5.9334,3.88772 -5.9643,3.87532 -4.2909,-1.72662 3.5192,-11.78102 16.7861,-16.71892 26.1692,-9.74015 10.825,8.05115 9.588,20.85378 -3.4044,35.23485 l -8.267,9.15064 h 6.8924 c 3.7909,0 8.2186,-1.59786 9.8394,-3.5508 4.5805,-5.51922 6.9856,-0.67534 4.3693,8.79998 l -2.3645,8.56377 h -17.158 c -10.5513,0 -17.158,-0.93962 -17.158,-2.44026 z M 520.47958,342.75192 c -4.62789,-2.69551 -5.40704,-13.63159 -1.26619,-17.77244 1.51942,-1.51942 5.45611,-2.76259 8.7482,-2.76259 7.34075,0 11.51079,3.86026 11.51079,10.6557 0,9.96886 -9.95165,15.14533 -18.9928,9.87933 z m 2584.28422,-2.02457 c -10.2352,-6.24083 -15.3994,-17.0886 -15.495,-32.54807 -0.094,-15.28472 6.6993,-27.17958 18.8262,-32.96249 10.1633,-4.84657 17.3223,-4.5984 28.256,0.97952 11.6655,5.95131 16.986,16.03965 16.986,32.20763 0,22.24652 -12.6619,36.81732 -31.9943,36.81732 -5.0813,0 -12.512,-2.01416 -16.5789,-4.49391 z m 22.1387,-7.91496 c 1.733,-2.08819 2.4379,-11.09267 2.0084,-25.65497 -0.5523,-18.72666 -1.3503,-22.85866 -4.8254,-24.98399 -3.3303,-2.03686 -4.8276,-1.65214 -7.482,1.92232 -3.9516,5.32156 -4.6455,40.5484 -0.9351,47.48112 2.8026,5.23686 7.4857,5.7519 11.2341,1.23552 z m -140.236,6.5897 c 0,-1.20209 2.4032,-5.3344 12.6722,-21.78951 20.1098,-32.22412 38.0828,-62.06186 39.3105,-65.26117 1.2347,-3.21743 -0.2636,-3.79835 -9.722,-3.76965 -14.6459,0.0444 -21.7535,3.84067 -26.9108,14.37272 -2.3202,4.73821 -5.1691,8.61493 -6.331,8.61493 -2.8938,0 -2.6769,-22.26953 0.2708,-27.77724 2.208,-4.12572 5.1688,-4.45297 40.2877,-4.45297 28.792,0 37.9032,0.69182 37.8986,2.87769 0,1.58274 -3.4767,8.57554 -7.7187,15.53957 -4.2421,6.96403 -16.1531,26.51762 -26.469,43.45243 -10.3158,16.93482 -18.7559,31.31253 -18.7559,31.95048 0,0.63796 8.3128,0.67868 18.4727,0.0905 16.3069,-0.94398 19.2566,-1.82018 25.1566,-7.47271 3.6759,-3.52185 7.9206,-9.38956 9.4324,-13.03938 1.5118,-3.64982 3.6588,-6.63602 4.7715,-6.63602 2.3378,0 2.6189,13.35378 0.5454,25.89928 l -1.4272,8.63309 h -45.7418 c -25.1582,5e-5 -45.742,-0.55438 -45.742,-1.23202 z M 1626.091,269.6368 c 0,-1.06296 2.59,-3.11268 5.7554,-4.55499 l 5.7554,-2.62231 v -42.59543 -42.59543 l -5.7554,-1.44451 c -11.8257,-2.96807 -5.103,-5.54968 14.4518,-5.54968 h 20.2071 l 6.6222,15.53957 c 3.6421,8.54676 8.5589,19.9391 10.9261,25.31632 2.3672,5.37722 5.3446,12.51371 6.6164,15.85886 1.2718,3.34515 2.7037,5.67942 3.182,5.18727 1.2738,-1.31071 19.7017,-45.66121 22.6119,-54.42001 l 2.486,-7.48201 h 21.4842 c 12.7881,0 21.4843,0.93184 21.4843,2.30216 0,1.26618 -1.8648,2.30215 -4.1439,2.30215 -8.7987,0 -9.6691,4.14463 -9.6691,46.04317 0,41.89854 0.8704,46.04317 9.6691,46.04317 2.2791,0 4.1439,1.03597 4.1439,2.30215 0,1.40133 -10.3598,2.30216 -26.4749,2.30216 -16.1151,0 -26.4748,-0.90083 -26.4748,-2.30216 0,-1.26618 2.1045,-2.30215 4.6766,-2.30215 2.5721,0 5.191,-1.34048 5.8197,-2.97884 0.6286,-1.63837 0.8551,-18.47291 0.5032,-37.41007 l -0.6398,-34.43124 -7.5754,18.41727 c -4.1665,10.12949 -11.3398,28 -15.9407,39.71223 -7.7981,19.85109 -12.3223,25.3507 -15.1508,18.41726 -4.9983,-12.25188 -32.2568,-74.44595 -32.9604,-75.20383 -0.4899,-0.52758 -0.8906,14.84299 -0.8906,34.15681 v 35.11604 l 6.9064,2.6069 c 11.256,4.24865 7.9934,6.20178 -10.3597,6.20178 -9.4964,0 -17.2662,-0.86968 -17.2662,-1.93261 z m 490.3597,-39.45745 c -13.295,-2.23653 -38.1583,-6.41557 -55.2518,-9.28677 -19.7209,-3.31253 -32.5637,-6.61037 -35.1413,-9.02377 -3.8567,-3.61103 -3.5245,-4.6135 6.5681,-19.82118 5.8467,-8.80978 12.0558,-17.51306 13.7982,-19.34062 2.7282,-2.86166 0.4456,-4.84342 -16.4467,-14.27931 -57.8463,-32.31227 -126.6026,-57.03 -192.0876,-69.055022 -49.3173,-9.056138 -58.9588,-9.822156 -123.1655,-9.785466 -60.0702,0.03433 -66.9691,0.473494 -101.2949,6.448138 -59.0394,10.276201 -100.7209,22.41714 -155.3957,45.26346 -11.0295,4.60876 -50.4957,24.38066 -52.5349,26.31915 -0.4051,0.38499 5.0338,9.46146 12.0863,20.16995 7.0525,10.70849 12.8227,20.52365 12.8227,21.81148 0,5.15913 -7.1213,7.16503 -37.9856,10.69969 -17.7266,2.03009 -45.0484,5.34515 -60.7152,7.36679 -42.0754,5.42946 -41.6916,8.41197 -7.1841,-55.82976 15.5306,-28.91287 29.2594,-53.86382 30.5085,-55.44655 4.3215,-5.47575 10.1677,-2.83175 17.8164,8.05755 4.2244,6.01439 11.2354,15.37739 15.5799,20.80667 l 7.899,9.87143 14.1628,-7.77825 c 63.0237,-34.61262 140.2236,-58.161956 231.7168,-70.68369 28.3355,-3.877985 81.8042,-5.046718 117.4101,-2.566381 94.5623,6.587278 178.9868,30.260353 263.8218,73.977041 l 34.7571,17.91081 15.4481,-20.62418 c 10.0825,-13.46062 16.7454,-20.37437 19.1828,-19.90495 4.4796,0.86268 9.7001,9.56797 35.8562,59.79103 10.986,21.09442 21.7117,41.38038 23.835,45.07991 5.0236,8.75322 2.8034,14.48055 -5.4906,14.16375 -3.5218,-0.13445 -17.2809,-2.07445 -30.5759,-4.31095 z"
       id="path28" />
    <path
       style="fill:none;stroke:#1c1c1c;stroke-width:2.30216"
       d="m 1315.2997,209.41114 c 9.4181,-7.13439 19.8423,-14.32403 32.2302,-21.3318 2.1617,-1.22199 10.5093,-5.42964 18.4173,-9.6442 34.0719,-18.16035 13.8912,-14.65692 43.741,-31.40489 11.3933,-6.39241 67.4693,-31.17422 85.1798,-37.35828 72.7413,-25.398098 152.7091,-41.209091 230.2158,-38.179911 69.8866,2.73151 141.417,12.779741 207.1943,36.443161 24.4903,8.81082 90.2423,38.28674 108.2014,49.36127 28.3257,17.46809 20.7954,39.11643 43.3381,26.84685 4.7056,-2.56161 4.9197,-13.13819 4.9819,-13.95039 0.937,-12.4335 1.3099,-21.19689 2.3275,-29.84656 m -729.7842,-23.02158 c 0.014,10.37536 2.0628,24.8587 2.3022,59.85611 m 262.446,-2.30216 c 9.501,1.32236 20.2153,0.29583 31.3117,13.16881 9.7588,11.32317 21.7577,50.23494 29.5988,51.10976 23.8205,2.65669 23.6869,-58.14216 47.291,-52.76777 l 23.0215,-11.5108 m -108.2014,6.90648 c -11.7594,21.64029 4.2383,78.36086 -23.0216,89.78417 m 108.2015,-85.17985 c 0,57.07971 -7.291,74.29985 23.0215,85.17985 m 329.2087,-82.8777 41.4388,27.6259 m -444.3165,27.6259 v 23.02159 m 1312.2301,0 c 7.2518,-21.19367 23.6662,-22.25957 36.7194,-19.90677 53.5713,9.65525 -50.5323,74.40806 -10.8431,89.39051 15.5165,5.85899 50.4863,6.30561 54.6993,-25.74274 m -1342.1582,-52.94964 -23.0216,13.81295 m -66.7626,-2.30216 9.2086,2.30216 m -425.8992,6.90648 25.3237,13.81295 25.3237,-13.81295 m 897.8417,0 25.3238,13.81295 25.3237,-13.81295 m 887.1827,3.98733 c 4.5122,-2.35971 9.6921,-2.22618 14.2503,0.35224 7.8274,4.43856 11.9713,13.67251 11.7411,27.89064 -0.2303,14.73382 -4.8346,25.34216 -15.8159,28.14389 2.8317,-0.72288 -55.2518,-32.80806 -10.1755,-56.38677 m -2441.13945,2.91914 v 142.73382 c 0,11.69496 -4.00575,39.27482 5.0072,46.90187 12.35798,10.4541 45.75539,3.74561 61.75539,3.74561 25.36518,0 52.50302,0 73.66906,0 33.04057,0 37.17755,-1.83022 57.55395,2.30216 0.12432,-10.01439 -2.31827,-16.3154 -11.51079,-27.6259 M 813.4292,287.68452 v 75.97122 m 439.7122,-71.3669 c 0,15.61784 -1.9292,49.42043 1.257,62.08921 3.5154,13.9833 9.3352,18.21237 24.0737,19.91827 16.1588,1.87165 31.1965,-1.72432 39.1297,-29.05784 m 884.0288,-52.94964 c 0,15.61784 -1.9292,49.42273 1.2569,62.08921 3.5154,13.9833 9.3353,18.21237 24.0737,19.91827 14.2366,1.64834 29.9281,-1.45036 39.1298,-26.75568 m 672.2302,-52.94965 v 145.03598 c 0,12.39021 3.4532,39.1551 -8.3338,45.64028 -23.6202,12.97727 -60.1094,2.70504 -81.4504,2.70504 -21.2719,0 -48.1611,0 -73.6691,0 -17.5194,0 -35.5223,0 -48.3453,0 M 2848.537,296.89315 v 80.57554 m -568.6331,-50.64748 c 25.379,-2.94906 17.5172,13.69324 12.0426,31.73525 -4.0932,13.48144 7.6041,10.47252 17.8855,5.09928 m -978.4172,-34.53237 c 17.9476,0.80345 18.5715,36.15079 0,46.04316 M 419.76016,349.84279 c 5.24431,-19.50849 20.61582,-20.09093 34.42647,-17.6046 59.99424,10.80863 -58.87769,76.44316 -8.78734,90.01669 21.44691,5.81295 45.55971,4.03338 54.9364,-24.06676 m 27.6259,-64.46043 v 2.30215 m 725.17981,25.32374 -25.3237,13.81295 m 973.8129,-13.81295 -25.3238,13.81295 M 550.98317,363.65574 c 3.49468,1.59079 8.82417,5.5482 18.47712,7.01468 10.24,1.55396 14.13065,-4.02187 24.66763,-1.93151 12.59971,2.49784 10.88,21.49065 15.50503,38.58187 3.38187,12.48921 8.81727,14.85813 12.71712,18.49324 m 725.17983,-57.55396 11.5108,6.90647 m -833.38127,-2.30215 c 0,38.81208 4.18533,44.58359 16.11511,52.94964 m 27.6259,-50.64749 c 0,37.12 4.12316,41.61382 13.81295,50.64749 M 3299.76,478.76366 c -38.5611,26.31827 -68.5122,16.44431 -75.9252,-23.02159 -6.3079,-33.45496 14.0432,-57.44805 39.0907,-59.19079 19.9827,-1.3905 33.4043,3.8377 36.8345,29.26274 M 569.40044,414.30323 553.28533,425.81402 m 382.15825,119.71223 c 10.24921,8.50417 23.65238,28.11395 29.8636,32.45122 8.60547,6.01094 15.4705,4.30964 27.69036,4.3718 41.28686,0.2118 85.09236,0.0115 126.61866,0.0115 14.4553,0 45.3894,3.43022 49.3905,-10.01209 8.7574,-29.40546 -19.0918,-132.3718 20.0127,-151.08374 36.8829,-17.64834 80.7597,63.29554 51.1148,90.29756 -34.7211,31.62244 -27.0296,-56.29698 -11.3542,-74.05583 23.6961,-26.84317 46.6923,-22.88345 70.4046,-2.48403 24.6239,-21.18446 107.8929,-7.99309 89.8624,59.81698 -4.8046,18.07424 -26.8639,26.81554 -35.8538,6.66244 -11.9367,-26.76028 7.9033,-87.41064 44.9565,-82.57611 41.6461,5.4354 27.6536,92.71942 27.6536,121.99597 0,11.34964 -3.0964,37.04863 8.1634,41.85784 41.082,17.55166 137.943,1.88317 185.2179,1.88317 88.4972,0 185.3605,0.22331 271.6546,0.22331 68.754,0 141.6932,0.99223 211.7801,-0.26245 43.2438,-0.77352 16.1865,-112.56403 29.7969,-144.83108 12.2129,-28.94734 39.2748,-15.85266 55.4014,-2.46791 -9.7036,12.68259 -37.2443,82.95137 0.037,82.49554 38.941,-0.47655 12.2728,-64.89784 -0.037,-80.19338 21.1845,-19.06418 44.8438,-26.82936 68.2429,-1.98216 11.1701,11.85842 39.855,94.73611 -3.4901,81.34216 -44.1093,-13.63108 1.3629,-113.2731 50.3551,-96.44892 24.5272,8.42359 41.4964,34.6682 43.3128,60.82992 0.9232,13.28346 -4.5007,41.92921 -24.4028,35.619 -42.0812,-13.34561 -3.4786,-97.11655 31.7329,-96.98303 56.0852,0.2118 15.8987,110.03626 32.6492,137.75425 6.4691,10.72115 36.282,6.48748 47.9309,6.48748 40.1957,0 106.1295,14.81439 136.541,-4.18532 7.8734,-4.91741 20.5123,-21.53899 29.2144,-30.34705 M 1299.1846,435.02265 c -12.1025,15.69842 -39.4176,75.86532 -2.2239,78.51741 38.6187,2.75108 16.8311,-58.06734 2.2239,-76.21525 m -485.7554,4.60431 v 36.83454 39.13669 M 2848.537,444.23128 v 82.8777 m -98.9928,-64.46043 c -16.4374,20.23137 -16.2532,26.04201 0,46.04317 m -1878.56105,-27.6259 -11.51079,18.41726 m -340.7194,39.13669 c -17.96835,26.26072 -23.09755,61.48605 3.79856,48.77353 3.21151,-1.51712 5.37554,-3.45784 7.71223,-5.03252 19.25755,31.0423 21.48374,33.62302 36.83453,39.13669 m -50.64748,-73.66906 13.81295,34.53237 m 2069.64015,13.81295 c -13.1453,-13.9764 -16.2762,-19.63281 -20.7194,-27.6259 19.8906,-4.03568 56.7252,-2.30216 94.3885,-2.30216 82.7856,0 165.7324,-2.30216 248.6331,-2.30216 h 202.5899 c 26.4978,0 64.5755,-0.24633 89.7842,0.0253 26.8661,0.29007 19.8906,4.00806 41.4388,4.74705 18.0029,0.61928 16.5525,-6.44144 43.741,-7.01928 103.436,-2.19626 230.5151,-0.0553 336.1151,-0.0553 33.1741,0 98.9237,-12.86446 127.6547,2.70503 16,8.66072 8.1726,69.58504 8.1726,87.07914 0,63.83885 -4.7424,129.80259 1.036,193.38129 2.2791,24.96691 8.7252,75.58216 -3.7525,96.69065 -21.0187,35.57986 -99.6374,71.58331 -103.2058,112.80571 -1.1511,13.5344 18.7626,27.9459 27.6489,36.8346 26.8662,26.8684 57.2547,57.25 80.5756,80.5755 23.1367,-23.1275 102.1698,-78.5335 105.0705,-115.1079 2.4863,-31.535 -80.9209,-97.32143 -102.7684,-112.80575 m -1201.7265,-379.85612 4.6043,4.60432 m 679.1367,2.30216 c -0.7137,6.80518 -2.1871,10.93525 -2.3022,34.53237 -0.069,16.11281 0,58.99972 0,78.27338 0,66.99281 -9.0475,163.95281 3.1079,227.67655 3.7986,19.96432 23.3209,20.52835 36.0288,30.16518 -18.3022,14.37698 -70.4691,24.01151 -70.354,41.3836 0.1612,21.41461 54.7223,27.32431 70.354,41.49411 -24.3568,17.5608 -50.6015,27.7755 -85.1799,41.4388 m -1192.5179,359.1367 c -16.2371,13.5114 -31.4267,22.6141 -57.5378,20.2084 -17.2409,-1.5885 -32.2809,-19.8446 -15.0561,-33.409 35.1309,-27.6719 120.6423,27.6052 78.9041,61.9741 -33.059,27.2208 -98.1755,-12.6411 -127.9217,12.5261 -13.7093,11.6006 3.2207,91.6926 -12.7194,97.9683 -54.4645,21.4446 -176.8978,1.8832 -238.6187,1.8832 h -603.1654 c -122.88694,0 -258.23082,0.071 -379.85614,0 -24.17496,-0.014 -33.46647,1.1534 -39.99539,-7.1045 -10.08345,-12.7585 -3.74561,-13.8129 -3.74561,-38.9387 0,-61.3939 0,-139.6236 0,-202.5899 0,-25.8947 -9.0682,-52.2544 2.70503,-71.7882 4.25439,-7.0584 46.8213,-14.476 57.15108,-20.4432 38.55194,-22.271 64.40057,-63.4221 64.41669,-108.0564 0.0161,-43.2253 -22.73151,-83.2138 -59.82158,-105.9821 -11.6259,-7.1367 -56.86331,-17.7197 -61.74619,-26.659 -13.19827,-24.17267 -2.70503,-68.93123 -2.70503,-99.87684 0,-87.03309 0,-198.64403 0,-283.16547 0,-24.67683 -7.38993,-23.52806 3.74561,-36.39022 4.02647,-4.65035 19.68345,-2.99971 35.39108,-2.78791 44.78158,0.60317 109.38244,0.053 154.24459,0.25784 52.9105,0.24173 110.71079,6.25266 149.64028,-2.51856 m -147.33812,4.60432 c 0,19.74101 0,50.56 0,75.97122 M 956.16301,586.9651 c -4.57209,7.59482 -7.73065,12.85755 -18.41727,25.32374 M 1890.8392,586.9651 c 0,36.32575 -2.3021,160.5341 -2.3021,209.4964 0,17.22245 -0.9485,51.45324 0.4673,64.37986 3.6719,33.50561 50.9629,18.49784 89.3168,18.49784 M 488.8249,591.56941 468.10548,621.49747 M 2848.537,593.87157 v 80.57554 m -379.8561,-73.66906 23.0216,13.81295 25.3237,-13.81295 m -1975.25166,9.20863 -18.41727,11.51079 M 2491.7025,614.591 c 0,56.20259 -11.6489,73.62072 25.3237,82.87769 m -2035.10777,-78.27338 13.81295,2.30216 M 2523.9327,642.2169 c 21.1338,11.25985 21.6173,44.39712 0,55.25179 m 16.1151,-48.34532 13.813,-6.90647 m 34.5323,6.90647 c 30.6418,-4.68719 16.6216,23.70763 6.9065,41.43885 l 18.4173,2.30216 m -1742.73375,-39.13669 23.02159,13.81295 25.32374,-13.81295 m 1192.51792,0 c 0,23.35769 0,39.12287 0,57.55395 16.5088,0.002 32.907,1.77727 55.2518,2.30216 M 894.00474,667.54064 c 0,56.20259 -11.65813,73.62072 25.32374,82.87769 m 1572.37402,-66.76259 -23.0216,13.81295 m 71.3669,-6.90647 c 9.0475,4.89439 15.8389,7.4636 32.2302,4.60432 m -1646.04305,0 13.81295,9.20863 13.81295,-9.20863 m 36.83453,9.20863 c 19.06422,0.40518 19.59132,36.21295 0,46.04316 M 940.0479,704.37517 c 0.002,24.82417 -4.82532,38.5105 14.0777,43.9528 8.90474,2.56461 18.72805,-2.9905 22.75683,-14.02474 M 2054.2924,711.28164 c 22.4,0 38.8789,-1.01985 55.2518,2.30216 m 0,0 c 0,14.43914 0,29.6495 0,50.64748 M 894.00474,736.60538 870.98315,750.41833 M 813.4292,738.90754 v 71.36691 m 126.6187,-69.06475 -13.81295,9.20863 m 80.57555,-6.90647 11.5108,6.90647 m 1830.2157,-6.90647 v 80.57554 m -1144.1726,64.46043 c -35.6904,28.64576 -68.4178,14.79137 -74.88,-23.02158 -5.7692,-33.75425 14.4921,-56.37065 38.0478,-58.93986 19.4049,-2.11568 32.2808,4.27971 39.1344,24.40748 m 377.5539,112.80576 c 0.9945,-30.86734 -39.9678,-83.60978 -4.6043,-96.69065 m 27.6259,0 c 11.6972,2.70734 16.8426,3.25525 27.6259,2.30216 m -96.6907,0 18.4173,6.90648 m -329.2086,-2.30216 c 18.8524,14.92259 9.8901,41.0705 -4.6043,48.34532 m 398.2733,-46.04316 c -6.5289,34.23079 -22.7407,57.11654 -32.2302,66.76259 m 1307.6258,-57.55396 v 62.15827 M 1803.3572,879.3392 h 85.1799 m -1075.1079,9.20863 v 71.36691 M 2197.0262,934.591 c -20.5329,12.71252 -38.8282,10.48403 -44.1438,-11.60288 -3.9759,-16.52489 7.6754,-28.84604 18.9053,-31.82504 10.9514,-2.90532 19.8469,3.39338 25.2385,13.49986 m 651.5108,-13.81295 v 82.8777 m -1109.6402,-78.27338 11.5108,6.90647 m 460.4316,-4.60432 c 19.9229,2.68662 19.2806,36.3672 0,46.04317 m 1153.3812,-48.34532 h 59.8561 M 1801.055,927.68452 h 179.5684 m -92.0863,4.60432 c 0.4972,23.29324 7.307,159.16896 -2.3022,184.17266 -7.8089,-5.1407 -13.5965,-9.3053 -27.6259,-23.0216 m 368.3453,-156.54674 11.5108,6.90647 m 1056.6906,-2.30216 h 11.5108 m 465.0359,39.13669 c -3.8676,29.22364 -10.4057,29.97184 -27.6259,66.76264 m -658.4172,-55.25185 c 38.1698,8.61695 32.7137,84.01955 0,96.69065 m 23.0216,-87.482 c 21.9395,-14.16059 41.0244,-18.73267 48.4144,9.4066 2.9467,11.2829 -7.8044,19.2737 -10.2907,32.0322 -7.0906,36.5583 28.6389,41.9753 40.1497,46.0432 m 131.223,-96.69065 c 5.5021,1.53785 14.0431,0.58936 22.5841,14.58645 12.708,20.7885 22.6072,59.7525 34.118,53.0556 15.8158,-9.211 31.954,-58.6245 16.9669,-67.64205 m -50.6475,6.90648 18.4173,-6.90648 m 46.0432,2.30216 11.5108,-2.30216 m 356.8345,11.51075 c 8.8633,6.6372 13.0762,10.7972 25.3237,41.4389 m -3181.58254,218.705 c -48.15885,-18.9122 -124.02647,-48.2164 -122.75107,-128.9208 0.61237,-38.7246 20.00345,-75.7595 51.38877,-98.4979 20.89899,-15.1413 50.94676,-22.2296 69.06014,-25.8187 m 3151.6545,0 c 7.436,19.3266 4.6043,57.6829 4.6043,105.8993 m -476.5467,-92.0863 h 6.9065 m 151.9884,10.2008 c 14.0662,-1.0498 21.5713,10.6728 21.9396,24.3338 0.3914,14.4806 -6.1237,25.8326 -19.7295,26.6429 -14.5266,0.8633 -22.6072,-12.6734 -22.423,-26.6429 0.2072,-13.5574 7.6432,-23.3922 20.2129,-24.3338 m 552.472,1.31 23.0215,11.5108 23.0216,-11.5108 m -3239.1365,2.3021 v 69.0648 m 2297.5538,-66.7626 c 8.9554,-0.7712 14.7799,-1.0659 27.6259,2.3021 m -290.0719,-2.3021 v 80.5755 m 1181.0071,-73.669 c 0,57.0797 -7.2978,74.2998 23.0216,85.1798 M 352.99757,1054.3032 c -16.88403,5.4216 -18.9928,27.0964 -30.44604,50.6199 -7.96547,16.3614 -13.67252,19.2138 -17.89928,23.0492 -23.43804,-41.7197 -38.61134,-63.4014 -6.90647,-75.9712 m 27.62589,0 11.51079,2.3021 m 1312.23014,9.2087 25.3237,13.8129 25.3238,-13.8129 m 340.7194,0 115.1079,2.3021 m 1063.5971,0 c 19.5913,13.7209 57.8992,25.9384 75.9712,39.1367 -18.164,14.5105 -70.2158,20.8345 -70.354,41.4918 -0.069,13.661 31.977,17.8671 33.3123,39.116 6.9525,111.2219 0.2072,238.469 0.2072,349.8958 0,22.1537 4.351,44.1048 5.0187,44.6734 11.741,10.3597 9.8302,5.7324 36.4201,5.9534 106.0604,0.8748 243.2921,0.021 352.2302,0.021 25.0935,0 102.1007,12.1922 119.2978,-5.0072 14.8259,-14.8121 5.0187,-74.9237 5.0187,-96.2878 0,-75.2414 -2.3021,-150.324 -2.3021,-225.6115 0,-27.6742 0,-66.0328 0,-87.482 m -407.482,-105.8993 v 16.1151 m 607.7697,34.5324 c -22.6072,23.5902 -35.3841,14.7822 -37.1338,-11.5131 -1.1511,-17.2984 5.0878,-32.8932 16.5295,-32.8909 13.1223,0 21.4331,17.2109 22.354,26.1157 1.6806,15.9838 6.9525,33.1902 21.2719,25.1948 v 0 m -2322.8776,-46.0432 c 0,56.2026 -11.6581,73.6207 25.3238,82.8777 m 1408.9208,-82.8777 23.0216,11.5108 m 932.374,-11.5108 c 13.5827,10.7603 12.5698,42.3735 0,55.2518 m 11.5108,-50.6475 11.5108,-4.6043 m -105.8993,2.3022 -2.3021,9.2086 m 149.6402,-4.6043 c 14.0202,5.8682 9.8303,37.5137 23.0216,48.3453 m -3784.74798,4.6043 c 11.17237,13.6127 50.61985,9.379 18.69813,-20.9243 -22.25727,-21.1338 -1.11885,-36.3073 18.1364,-18.2124 m 128.92086,29.9281 c 10.73266,-28.9566 46.51971,-48.0276 72.61697,-21.9925 27.69266,27.6305 61.36863,127.749 100.04489,31.2011 m 1217.84163,-43.741 c -10.3827,10.1756 -22.2572,17.1028 -28.701,27.0872 -4.8368,7.4981 -3.5315,16.4674 -3.5315,25.8625 0,17.8486 -5.6564,74.1824 10.0144,80.5824 40.8702,16.693 72.4604,-11.078 114.2469,6.6118 30.3355,12.8414 16.5686,37.5528 2.3597,53.2374 16.4098,19.6743 18.1502,49.3192 2.3022,69.0648 14.2757,18.4241 16.2808,48.0529 0,69.0647 m -313.0935,-320 c 18.2699,10.2884 20.3856,44.3948 0,55.2518 m 16.1151,-48.3453 11.5108,-6.9065 m 1560.8632,0 h 4.6043 m -1526.3309,4.6043 c 27.0619,-0.4052 31.8389,51.4279 -4.6043,46.0432 m 2343.597,-41.4389 c -7.1597,20.4939 -23.2518,18.438 -36.8345,11.5108 m -46.0432,-6.9064 -23.0215,13.8129 m 133.5251,-6.9065 -11.5108,6.9065 m -3826.18681,-2.3021 v 18.4172 m 1454.96391,-4.6043 c -6.5174,17.8532 -21.4169,16.2624 -34.5323,9.2086 m -48.3454,-6.9064 -25.3237,13.8129 m 1563.1654,-13.8129 h 6.9065 m -2405.7553,39.1367 v 75.9712 m 2035.1078,-71.3669 v 80.5755 m -704.4604,-27.6259 23.0216,13.813 25.3237,-13.813 m -25.3237,13.813 c 0,44.0771 -16.96,72.9876 20.7586,79.772 17.8417,3.2093 34.8546,-0.6676 43.7018,-24.5202 m -216.4028,-25.3238 c -13.5966,10.9698 -80.693,39.634 -78.377,0 2.2354,-38.2526 66.0098,-11.6259 78.377,0 m 1349.0646,-4.6043 h 59.8561 m -1181.0071,9.2086 c 41.844,-13.5321 24.1681,47.9218 2.3022,41.4389 m -78.2734,-6.9065 -23.0216,13.813 m -1330.6474,-4.6044 v 69.0648 m 1204.0287,-48.3453 c -12.846,10.9053 -77.2328,40.9692 -80.3085,2.1502 -3.2828,-41.4228 64.35,-15.0285 80.3085,-2.1502 m 831.0791,-18.4173 v 80.5755 m -2035.1078,59.8562 v 75.9712 M 2848.537,1487.109 c 0,19.3888 -10.1295,82.4426 5.0187,95.2472 22.1698,18.7741 114.9237,3.7456 144.6216,3.7456 h 168.0575 c 15.0792,0 48.3223,0.2739 59.8561,-0.2049 20.6964,-0.8633 23.7123,-1.8671 29.9281,-2.0973 M 435.87526,1494.0155 c 40.59396,14.2756 44.34878,85.5896 0,96.6906 m 25.32374,-85.1798 c 24.44892,-16.3822 41.58619,-8.3707 42.16864,11.5706 0.24633,8.4558 -6.12835,17.3468 -9.93842,22.9617 4.74705,5.1638 15.03309,14.9917 14.81439,25.303 -0.3154,14.9341 -12.42475,22.9272 -26.29986,22.8605 -11.75712,-0.055 -17.95913,-7.0354 -20.74475,-9.0268 m 2.30216,-39.1367 c 5.68403,0 10.81094,0 29.92806,0 m 1402.01428,46.0432 c 36.5767,0 162.362,0 211.7986,0 h 543.3093 c 46.5266,0 159.8849,0 195.6834,0 M 813.4292,1632.145 v 71.3669 m 2035.1078,-69.0648 v 82.8777 m 359.1367,-32.2302 c 9.6,3.1609 18.6705,4.6273 23.4359,18.6152 14.0662,41.1995 -4.5122,73.3399 -23.4359,78.0754 m 25.3237,-85.1798 c 27.764,-18.6912 57.0015,-7.139 59.0734,34.5324 2.0719,41.4411 -27.5108,59.5131 -59.0734,39.1367"
       id="path26" />
    <path
       style="fill:none;stroke:#ea0000;stroke-width:10;stroke-linecap:butt;stroke-linejoin:miter;stroke-miterlimit:4;stroke-dasharray:none;stroke-opacity:1"
       d="m 1058.4783,973.58783 c 50.4037,-132.64141 124.6898,-219.84622 265.2829,-222.83756 323.7548,21.61624 354.7084,412.12913 185.6979,551.78813 -151.3239,119.4012 -331.6035,76.932 -331.6035,76.932"
       id="path873"
       sodipodi:nodetypes="cccc" />
    <path
       style="fill:none;stroke:#ea0000;stroke-width:30;stroke-linecap:butt;stroke-linejoin:miter;stroke-miterlimit:4;stroke-dasharray:none;stroke-opacity:1"
       d="m 1162.8489,1379.4704 51.7526,26.466 0,-42.2061 z"
       id="path890"
       sodipodi:nodetypes="cccc" />
    <path
       style="fill:none;stroke:#ea0000;stroke-width:10;stroke-linecap:butt;stroke-linejoin:miter;stroke-miterlimit:4;stroke-dasharray:none;stroke-opacity:1"
       d="m 2873.9143,1012.1619 c -50.4037,-132.64138 -124.6898,-219.84619 -265.2829,-222.83753 -323.7548,21.61624 -354.7084,412.12913 -185.6979,551.78813 151.3239,119.4012 331.6035,76.932 331.6035,76.932"
       id="path873-5"
       sodipodi:nodetypes="cccc" />
    <path
       style="fill:none;stroke:#ea0000;stroke-width:30;stroke-linecap:butt;stroke-linejoin:miter;stroke-miterlimit:4;stroke-dasharray:none;stroke-opacity:1"
       d="m 2769.5437,1418.0445 -51.7526,26.466 v -42.2061 z"
       id="path890-8"
       sodipodi:nodetypes="cccc" />
    <path
       style="fill:none;stroke:#ea0000;stroke-width:8.14917;stroke-linecap:butt;stroke-linejoin:miter;stroke-miterlimit:4;stroke-dasharray:none;stroke-opacity:1"
       d="m 3721.8111,1014.0899 c -34.5083,-128.66049 -85.3673,-213.24817 -181.6225,-216.14981 -221.6547,20.96764 -242.8466,399.76051 -127.1358,535.22801 103.602,115.8176 227.0282,74.623 227.0282,74.623"
       id="path873-5-1"
       sodipodi:nodetypes="cccc" />
    <path
       style="fill:none;stroke:#ea0000;stroke-width:23.4853;stroke-linecap:butt;stroke-linejoin:miter;stroke-miterlimit:4;stroke-dasharray:none;stroke-opacity:1"
       d="m 3653.1675,1395.9299 -34.0373,24.6612 v -39.3281 z"
       id="path890-8-8"
       sodipodi:nodetypes="cccc" />
    <text
       xml:space="preserve"
       style="font-style:normal;font-weight:normal;font-size:120px;line-height:1.25;font-family:sans-serif;fill:#000000;fill-opacity:1;stroke:none"
       x="1140.5061"
       y="1117.9961"
       id="text934"><tspan
         sodipodi:role="line"
         id="tspan932"
         x="1140.5061"
         y="1117.9961"
         style="font-style:normal;font-variant:normal;font-weight:normal;font-stretch:normal;font-size:120px;font-family:'CMU Serif';-inkscape-font-specification:'CMU Serif';fill:#da0000;fill-opacity:1">Mesh 1</tspan></text>
    <text
       xml:space="preserve"
       style="font-style:normal;font-weight:normal;font-size:120px;line-height:1.25;font-family:sans-serif;fill:#000000;fill-opacity:1;stroke:none"
       x="2406.4209"
       y="1140.1948"
       id="text934-9"><tspan
         sodipodi:role="line"
         id="tspan932-4"
         x="2406.4209"
         y="1140.1948"
         style="font-style:normal;font-variant:normal;font-weight:normal;font-stretch:normal;font-size:120px;font-family:'CMU Serif';-inkscape-font-specification:'CMU Serif';fill:#da0000;fill-opacity:1">Mesh 2</tspan></text>
    <text
       xml:space="preserve"
       style="font-style:normal;font-weight:normal;font-size:120px;line-height:1.25;font-family:sans-serif;fill:#000000;fill-opacity:1;stroke:none"
       x="3363.3037"
       y="1211.4764"
       id="text934-4"><tspan
         sodipodi:role="line"
         id="tspan932-9"
         x="3363.3037"
         y="1211.4764"
         style="font-style:normal;font-variant:normal;font-weight:normal;font-stretch:normal;font-size:120px;font-family:'CMU Serif';-inkscape-font-specification:'CMU Serif';fill:#da0000;fill-opacity:1">Mesh 3</tspan><tspan
         sodipodi:role="line"
         x="3363.3037"
         y="1361.4764"
         style="font-style:normal;font-variant:normal;font-weight:normal;font-stretch:normal;font-size:120px;font-family:'CMU Serif';-inkscape-font-specification:'CMU Serif';fill:#da0000;fill-opacity:1"
         id="tspan874" /></text>
  </g>
</svg>
